<?xml version="1.0" encoding="UTF-8"?>
<!DOCTYPE svg PUBLIC "-//W3C//DTD SVG 1.1//EN" "http://www.w3.org/Graphics/SVG/1.1/DTD/svg11.dtd">
<svg xmlns="http://www.w3.org/2000/svg" version="1.1" width="1452px" height="484px" style="shape-rendering:geometricPrecision; text-rendering:geometricPrecision; image-rendering:optimizeQuality; fill-rule:evenodd; clip-rule:evenodd" xmlns:xlink="http://www.w3.org/1999/xlink">
<g><path style="opacity:1" fill="#0c45fe" d="M 468.5,28.5 C 468.427,30.0269 469.094,31.0269 470.5,31.5C 473.599,36.2935 475.432,41.6268 476,47.5C 476.667,176.5 476.667,305.5 476,434.5C 472.73,454.437 461.23,466.603 441.5,471C 307.5,471.667 173.5,471.667 39.5,471C 20.2273,466.727 8.72727,454.894 5,435.5C 4.33333,305.833 4.33333,176.167 5,46.5C 8.61101,27.5552 19.7777,15.7219 38.5,11C 173.167,10.3333 307.833,10.3333 442.5,11C 453.78,13.1393 462.447,18.9726 468.5,28.5 Z M 226.5,51.5 C 251.834,51.8986 277.167,52.3986 302.5,53C 368.22,54.7175 410.054,87.2175 428,150.5C 437.257,187.363 432.757,222.363 414.5,255.5C 413.094,255.973 412.427,256.973 412.5,258.5C 411.094,258.973 410.427,259.973 410.5,261.5C 409.094,261.973 408.427,262.973 408.5,264.5C 405.705,266.751 403.372,269.418 401.5,272.5C 397.833,275.5 394.5,278.833 391.5,282.5C 367.667,300.735 340.667,311.235 310.5,314C 293.858,315.265 277.192,315.765 260.5,315.5C 260.5,353.5 260.5,391.5 260.5,429.5C 222.833,429.5 185.167,429.5 147.5,429.5C 147.5,417.833 147.5,406.167 147.5,394.5C 160.344,394.829 173.011,394.495 185.5,393.5C 185.5,354.833 185.5,316.167 185.5,277.5C 173.167,277.5 160.833,277.5 148.5,277.5C 148.5,253.833 148.5,230.167 148.5,206.5C 160.5,206.5 172.5,206.5 184.5,206.5C 184.172,218.345 184.505,230.012 185.5,241.5C 228.665,242.665 271.998,242.831 315.5,242C 327.536,240.736 337.036,235.236 344,225.5C 356.177,204.748 358.844,182.748 352,159.5C 347.034,143.533 336.534,133.367 320.5,129C 301.17,128.5 281.836,128.333 262.5,128.5C 262.5,141.167 262.5,153.833 262.5,166.5C 249.5,166.5 236.5,166.5 223.5,166.5C 223.829,153.989 223.495,141.655 222.5,129.5C 210.345,128.505 198.011,128.171 185.5,128.5C 185.5,116.167 185.5,103.833 185.5,91.5C 173.167,91.5 160.833,91.5 148.5,91.5C 148.5,78.8333 148.5,66.1667 148.5,53.5C 160.833,53.5 173.167,53.5 185.5,53.5C 185.5,65.8333 185.5,78.1667 185.5,90.5C 197.833,90.5 210.167,90.5 222.5,90.5C 223.495,78.011 223.829,65.3443 223.5,52.5C 224.791,52.7373 225.791,52.404 226.5,51.5 Z M 109.5,53.5 C 109.5,66.1667 109.5,78.8333 109.5,91.5C 97.1667,91.5 84.8333,91.5 72.5,91.5C 72.5,78.8333 72.5,66.1667 72.5,53.5C 84.8333,53.5 97.1667,53.5 109.5,53.5 Z M 109.5,129.5 C 121.833,129.5 134.167,129.5 146.5,129.5C 146.5,142.167 146.5,154.833 146.5,167.5C 134.167,167.5 121.833,167.5 109.5,167.5C 109.5,154.833 109.5,142.167 109.5,129.5 Z M 186.5,167.5 C 198.833,167.5 211.167,167.5 223.5,167.5C 223.5,180.167 223.5,192.833 223.5,205.5C 211.167,205.5 198.833,205.5 186.5,205.5C 186.5,192.833 186.5,180.167 186.5,167.5 Z M 107.5,280.5 C 95.5,280.5 83.5,280.5 71.5,280.5C 71.5,267.833 71.5,255.167 71.5,242.5C 83.5,242.5 95.5,242.5 107.5,242.5C 107.5,255.167 107.5,267.833 107.5,280.5 Z M 147.5,317.5 C 147.5,330.167 147.5,342.833 147.5,355.5C 135.167,355.5 122.833,355.5 110.5,355.5C 110.5,342.833 110.5,330.167 110.5,317.5C 122.833,317.5 135.167,317.5 147.5,317.5 Z M 107.5,391.5 C 107.5,404.167 107.5,416.833 107.5,429.5C 95.1667,429.5 82.8333,429.5 70.5,429.5C 70.5,416.833 70.5,404.167 70.5,391.5C 82.8333,391.5 95.1667,391.5 107.5,391.5 Z"/></g>
<g><path style="opacity:1" fill="#8f9ffe" d="M 468.5,28.5 C 469.906,28.9731 470.573,29.9731 470.5,31.5C 469.094,31.0269 468.427,30.0269 468.5,28.5 Z"/></g>
<g><path style="opacity:1" fill="#d5e0fe" d="M 226.5,51.5 C 225.791,52.404 224.791,52.7373 223.5,52.5C 223.829,65.3443 223.495,78.011 222.5,90.5C 222.5,90.1667 222.5,89.8333 222.5,89.5C 222.5,76.8333 222.5,64.1667 222.5,51.5C 223.833,51.5 225.167,51.5 226.5,51.5 Z"/></g>
<g><path style="opacity:1" fill="#b6c9fe" d="M 109.5,53.5 C 97.1667,53.5 84.8333,53.5 72.5,53.5C 72.5,66.1667 72.5,78.8333 72.5,91.5C 71.5045,78.6774 71.1712,65.6774 71.5,52.5C 84.3443,52.1713 97.011,52.5046 109.5,53.5 Z"/></g>
<g><path style="opacity:1" fill="#8ea5fe" d="M 185.5,52.5 C 185.5,52.8333 185.5,53.1667 185.5,53.5C 173.167,53.5 160.833,53.5 148.5,53.5C 148.5,66.1667 148.5,78.8333 148.5,91.5C 147.505,78.6774 147.171,65.6774 147.5,52.5C 160.167,52.5 172.833,52.5 185.5,52.5 Z"/></g>
<g><path style="opacity:1" fill="#4374fe" d="M 185.5,52.5 C 186.495,64.6554 186.829,76.9887 186.5,89.5C 198.5,89.5 210.5,89.5 222.5,89.5C 222.5,89.8333 222.5,90.1667 222.5,90.5C 210.167,90.5 197.833,90.5 185.5,90.5C 185.5,78.1667 185.5,65.8333 185.5,53.5C 185.5,53.1667 185.5,52.8333 185.5,52.5 Z"/></g>
<g><path style="opacity:1" fill="#93a9fe" d="M 148.5,91.5 C 160.833,91.5 173.167,91.5 185.5,91.5C 185.5,103.833 185.5,116.167 185.5,128.5C 198.011,128.171 210.345,128.505 222.5,129.5C 209.833,129.5 197.167,129.5 184.5,129.5C 184.5,117.167 184.5,104.833 184.5,92.5C 172.322,92.8284 160.322,92.4951 148.5,91.5 Z"/></g>
<g><path style="opacity:1" fill="#1346fe" d="M 185.5,241.5 C 185.5,229.833 185.5,218.167 185.5,206.5C 185.833,206.5 186.167,206.5 186.5,206.5C 199.167,206.5 211.833,206.5 224.5,206.5C 224.5,193.5 224.5,180.5 224.5,167.5C 237.344,167.829 250.011,167.495 262.5,166.5C 262.5,153.833 262.5,141.167 262.5,128.5C 281.836,128.333 301.17,128.5 320.5,129C 336.534,133.367 347.034,143.533 352,159.5C 358.844,182.748 356.177,204.748 344,225.5C 337.036,235.236 327.536,240.736 315.5,242C 271.998,242.831 228.665,242.665 185.5,241.5 Z"/></g>
<g><path style="opacity:1" fill="#97affe" d="M 109.5,129.5 C 121.989,128.505 134.656,128.171 147.5,128.5C 147.5,141.833 147.5,155.167 147.5,168.5C 134.656,168.829 121.989,168.495 109.5,167.5C 121.833,167.5 134.167,167.5 146.5,167.5C 146.5,154.833 146.5,142.167 146.5,129.5C 134.167,129.5 121.833,129.5 109.5,129.5 Z"/></g>
<g><path style="opacity:1" fill="#1747fe" d="M 588.5,271.5 C 585.713,270.523 582.713,270.19 579.5,270.5C 579.5,290.5 579.5,310.5 579.5,330.5C 570.167,330.5 560.833,330.5 551.5,330.5C 551.5,276.167 551.5,221.833 551.5,167.5C 554.385,167.806 557.052,167.473 559.5,166.5C 581.696,164.329 603.696,165.495 625.5,170C 652.824,178.38 664.324,196.88 660,225.5C 655.09,253.071 638.59,268.237 610.5,271C 603.128,272.062 595.795,272.229 588.5,271.5 Z M 580.5,192.5 C 594.491,190.962 607.825,193.128 620.5,199C 627.237,203.476 630.237,209.81 629.5,218C 629.456,232.718 622.123,241.385 607.5,244C 598.516,245.69 589.516,245.857 580.5,244.5C 580.5,227.167 580.5,209.833 580.5,192.5 Z"/></g>
<g><path style="opacity:1" fill="#1646fe" d="M 1153.5,271.5 C 1152.79,270.596 1151.79,270.263 1150.5,270.5C 1150.5,290.5 1150.5,310.5 1150.5,330.5C 1141.17,330.5 1131.83,330.5 1122.5,330.5C 1122.5,276.167 1122.5,221.833 1122.5,167.5C 1127.69,167.821 1132.69,167.487 1137.5,166.5C 1158.42,164.256 1179.08,165.756 1199.5,171C 1220.17,178.324 1230.84,192.991 1231.5,215C 1231.83,243.313 1218.5,261.313 1191.5,269C 1178.93,271.715 1166.26,272.548 1153.5,271.5 Z M 1151.5,192.5 C 1164.67,191.225 1177.33,193.059 1189.5,198C 1197,202.513 1200.67,209.18 1200.5,218C 1200.27,233.233 1192.6,241.9 1177.5,244C 1170.54,245.087 1163.54,245.587 1156.5,245.5C 1155.08,244.549 1153.41,244.216 1151.5,244.5C 1151.5,227.167 1151.5,209.833 1151.5,192.5 Z"/></g>
<g><path style="opacity:1" fill="#8aa4fe" d="M 222.5,129.5 C 223.495,141.655 223.829,153.989 223.5,166.5C 236.5,166.5 249.5,166.5 262.5,166.5C 250.011,167.495 237.344,167.829 224.5,167.5C 224.5,180.5 224.5,193.5 224.5,206.5C 211.833,206.5 199.167,206.5 186.5,206.5C 186.5,206.167 186.5,205.833 186.5,205.5C 198.833,205.5 211.167,205.5 223.5,205.5C 223.5,192.833 223.5,180.167 223.5,167.5C 211.167,167.5 198.833,167.5 186.5,167.5C 198.322,166.505 210.322,166.172 222.5,166.5C 222.5,154.167 222.5,141.833 222.5,129.5 Z"/></g>
<g><path style="opacity:1" fill="#becefe" d="M 559.5,166.5 C 557.052,167.473 554.385,167.806 551.5,167.5C 551.5,221.833 551.5,276.167 551.5,330.5C 551.5,330.833 551.5,331.167 551.5,331.5C 550.501,276.669 550.168,221.669 550.5,166.5C 553.5,166.5 556.5,166.5 559.5,166.5 Z"/></g>
<g><path style="opacity:1" fill="#3a6cfe" d="M 1137.5,166.5 C 1132.69,167.487 1127.69,167.821 1122.5,167.5C 1122.5,221.833 1122.5,276.167 1122.5,330.5C 1131.83,330.5 1141.17,330.5 1150.5,330.5C 1150.5,330.833 1150.5,331.167 1150.5,331.5C 1140.83,331.5 1131.17,331.5 1121.5,331.5C 1121.5,276.5 1121.5,221.5 1121.5,166.5C 1126.83,166.5 1132.17,166.5 1137.5,166.5 Z"/></g>
<g><path style="opacity:1" fill="#a8befe" d="M 1151.5,192.5 C 1151.5,209.833 1151.5,227.167 1151.5,244.5C 1153.41,244.216 1155.08,244.549 1156.5,245.5C 1154.5,245.5 1152.5,245.5 1150.5,245.5C 1150.17,227.659 1150.5,209.992 1151.5,192.5 Z"/></g>
<g><path style="opacity:1" fill="#2149fe" d="M 867.5,217.5 C 867.557,218.609 867.89,219.609 868.5,220.5C 864.375,223.453 860.375,226.619 856.5,230C 866.013,247.754 865.513,265.254 855,282.5C 841.459,297.752 824.625,303.252 804.5,299C 800.443,299.915 797.443,302.081 795.5,305.5C 796.814,308.745 799.314,310.078 803,309.5C 815.374,306.809 827.874,305.975 840.5,307C 862.265,310.764 871.765,323.597 869,345.5C 866.646,356.524 860.479,364.691 850.5,370C 827.139,380.537 803.472,381.204 779.5,372C 773.616,369.43 768.283,366.097 763.5,362C 768.27,354.729 773.604,347.896 779.5,341.5C 780.5,341.5 781.5,341.5 782.5,341.5C 798.793,354.018 816.46,356.351 835.5,348.5C 843.753,341.734 843.087,335.9 833.5,331C 830.443,330.744 827.443,330.244 824.5,329.5C 813.237,331.251 801.904,332.085 790.5,332C 773.064,331.251 765.564,322.417 768,305.5C 770.833,298.667 775.667,293.833 782.5,291C 761.516,274.221 757.016,253.721 769,229.5C 782.392,212.567 799.892,205.734 821.5,209C 827.16,209.886 832.66,211.386 838,213.5C 841.979,209.605 845.979,205.605 850,201.5C 856.003,206.671 861.837,212.004 867.5,217.5 Z M 806.5,232.5 C 828.179,231.822 836.679,242.155 832,263.5C 828.766,272.289 822.432,276.622 813,276.5C 799.185,275.182 792.019,267.515 791.5,253.5C 792.375,243.327 797.375,236.327 806.5,232.5 Z"/></g>
<g><path style="opacity:1" fill="#a0b8fe" d="M 185.5,206.5 C 185.5,218.167 185.5,229.833 185.5,241.5C 184.505,230.012 184.172,218.345 184.5,206.5C 172.5,206.5 160.5,206.5 148.5,206.5C 148.5,230.167 148.5,253.833 148.5,277.5C 147.502,253.672 147.169,229.672 147.5,205.5C 160.344,205.171 173.011,205.505 185.5,206.5 Z"/></g>
<g><path style="opacity:1" fill="#2149fe" d="M 691.5,208.5 C 704.146,207.581 716.48,209.081 728.5,213C 736.4,216.186 742.567,221.353 747,228.5C 749.927,234.874 751.927,241.54 753,248.5C 754.177,267.81 754.844,287.144 755,306.5C 755.566,313.219 758.233,318.885 763,323.5C 762.062,328.118 759.229,331.285 754.5,333C 742.763,335.962 734.096,332.129 728.5,321.5C 712.977,333.788 695.644,336.954 676.5,331C 663.155,326.156 655.655,316.656 654,302.5C 652.043,277.913 662.876,262.08 686.5,255C 691.714,253.363 697.047,252.363 702.5,252C 710.23,251.744 717.897,251.578 725.5,251.5C 724.77,243.606 720.77,238.106 713.5,235C 699.28,231.693 685.28,232.526 671.5,237.5C 669.662,230.174 668.162,222.841 667,215.5C 674.94,211.977 683.107,209.644 691.5,208.5 Z M 724.5,274.5 C 725.445,279.405 725.779,284.405 725.5,289.5C 724.748,300.418 719.082,307.251 708.5,310C 687.229,313.406 679.395,304.906 685,284.5C 691.217,277.533 699.05,274.033 708.5,274C 713.846,273.568 719.18,273.734 724.5,274.5 Z"/></g>
<g><path style="opacity:1" fill="#2249fe" d="M 1099.5,231.5 C 1099.43,233.027 1100.09,234.027 1101.5,234.5C 1105.65,240.446 1108.15,247.112 1109,254.5C 1109.81,263.253 1109.31,271.919 1107.5,280.5C 1078.83,280.5 1050.17,280.5 1021.5,280.5C 1024.26,300.424 1035.76,310.091 1056,309.5C 1064.78,309.682 1072.94,307.682 1080.5,303.5C 1082.17,302.833 1083.83,302.167 1085.5,301.5C 1089.19,307.72 1092.53,314.22 1095.5,321C 1091.39,325.234 1086.39,328.234 1080.5,330C 1063.58,334.232 1046.58,334.565 1029.5,331C 1010.8,324.972 998.971,312.472 994,293.5C 988.293,270.736 991.96,249.736 1005,230.5C 1026.04,208.424 1050.87,202.924 1079.5,214C 1087.89,217.894 1094.56,223.727 1099.5,231.5 Z M 1080.5,255.5 C 1080.5,256.5 1080.5,257.5 1080.5,258.5C 1061.17,258.5 1041.83,258.5 1022.5,258.5C 1027.85,238.16 1040.85,229.994 1061.5,234C 1072.25,237.25 1078.58,244.416 1080.5,255.5 Z"/></g>
<g><path style="opacity:1" fill="#2049fe" d="M 1328.5,318.5 C 1328.43,320.027 1329.09,321.027 1330.5,321.5C 1331.96,322.458 1333.29,323.624 1334.5,325C 1328.86,332.992 1321.2,335.658 1311.5,333C 1309.68,332.8 1308.35,331.966 1307.5,330.5C 1307.03,329.094 1306.03,328.427 1304.5,328.5C 1302.14,326.287 1300.31,323.621 1299,320.5C 1292.81,327.674 1284.98,331.841 1275.5,333C 1257.46,336.541 1242.3,331.708 1230,318.5C 1221.5,302.268 1222.16,286.268 1232,270.5C 1245.61,257.013 1262.11,250.679 1281.5,251.5C 1285.53,251.613 1289.53,251.946 1293.5,252.5C 1294.21,253.404 1295.21,253.737 1296.5,253.5C 1296.78,251.585 1296.45,249.919 1295.5,248.5C 1293.61,240.537 1288.61,235.704 1280.5,234C 1268.03,231.866 1255.87,233.033 1244,237.5C 1243.23,237.355 1242.56,237.022 1242,236.5C 1240.37,229.942 1238.54,223.442 1236.5,217C 1236.64,216.228 1236.98,215.561 1237.5,215C 1256.84,207.702 1276.5,206.702 1296.5,212C 1312.66,217.784 1321.49,229.284 1323,246.5C 1324.24,265.133 1324.9,283.8 1325,302.5C 1325.54,307.99 1326.71,313.323 1328.5,318.5 Z M 1279.5,273.5 C 1284.84,273.687 1290.18,274.02 1295.5,274.5C 1295.67,281.175 1295.5,287.842 1295,294.5C 1291.44,305.88 1283.6,311.213 1271.5,310.5C 1256.04,310.26 1250.2,302.594 1254,287.5C 1255.78,283.388 1258.61,280.222 1262.5,278C 1268.09,275.688 1273.75,274.188 1279.5,273.5 Z"/></g>
<g><path style="opacity:1" fill="#0c45fe" d="M 904.5,292.5 C 907.977,306.588 916.977,312.088 931.5,309C 940.614,307.026 947.614,302.193 952.5,294.5C 953.498,267.005 953.831,239.338 953.5,211.5C 962.5,211.5 971.5,211.5 980.5,211.5C 980.5,251.167 980.5,290.833 980.5,330.5C 971.5,330.5 962.5,330.5 953.5,330.5C 953.84,327.028 953.507,324.361 952.5,322.5C 933.504,334.884 913.504,336.718 892.5,328C 882.336,320.841 877.002,311.008 876.5,298.5C 876.5,269.5 876.5,240.5 876.5,211.5C 885.5,211.5 894.5,211.5 903.5,211.5C 903.169,238.672 903.502,265.672 904.5,292.5 Z"/></g>
<g><path style="opacity:1" fill="#8ca8fe" d="M 904.5,292.5 C 903.502,265.672 903.169,238.672 903.5,211.5C 894.5,211.5 885.5,211.5 876.5,211.5C 876.5,240.5 876.5,269.5 876.5,298.5C 875.502,269.338 875.169,240.005 875.5,210.5C 885.167,210.5 894.833,210.5 904.5,210.5C 904.5,237.833 904.5,265.167 904.5,292.5 Z"/></g>
<g><path style="opacity:1" fill="#b7c9fe" d="M 981.5,211.5 C 981.167,211.5 980.833,211.5 980.5,211.5C 971.5,211.5 962.5,211.5 953.5,211.5C 953.831,239.338 953.498,267.005 952.5,294.5C 952.5,266.5 952.5,238.5 952.5,210.5C 962.348,210.173 972.014,210.506 981.5,211.5 Z"/></g>
<g><path style="opacity:1" fill="#4b76fe" d="M 980.5,211.5 C 980.833,211.5 981.167,211.5 981.5,211.5C 981.5,251.5 981.5,291.5 981.5,331.5C 971.833,331.5 962.167,331.5 952.5,331.5C 952.5,328.5 952.5,325.5 952.5,322.5C 953.507,324.361 953.84,327.028 953.5,330.5C 962.5,330.5 971.5,330.5 980.5,330.5C 980.5,290.833 980.5,251.167 980.5,211.5 Z"/></g>
<g><path style="opacity:1" fill="#274bfe" d="M 1328.5,210.5 C 1338.42,210.181 1348.25,210.514 1358,211.5C 1368.47,238.579 1379.14,265.579 1390,292.5C 1399.67,265.5 1409.33,238.5 1419,211.5C 1428.75,210.514 1438.58,210.181 1448.5,210.5C 1430.89,259.814 1412.39,308.814 1393,357.5C 1379.15,372.401 1361.98,379.401 1341.5,378.5C 1341.5,370.167 1341.5,361.833 1341.5,353.5C 1349.29,353.121 1356.96,351.954 1364.5,350C 1370.49,347.681 1373.82,343.348 1374.5,337C 1373.82,331.069 1372.65,325.236 1371,319.5C 1356.52,283.232 1342.36,246.898 1328.5,210.5 Z"/></g>
<g><path style="opacity:1" fill="#bfc6fe" d="M 867.5,217.5 C 869.382,218.221 869.715,219.221 868.5,220.5C 867.89,219.609 867.557,218.609 867.5,217.5 Z"/></g>
<g><path style="opacity:1" fill="#8c9cfe" d="M 1099.5,231.5 C 1100.91,231.973 1101.57,232.973 1101.5,234.5C 1100.09,234.027 1099.43,233.027 1099.5,231.5 Z"/></g>
<g><path style="opacity:1" fill="#d6e1fe" d="M 107.5,280.5 C 107.5,267.833 107.5,255.167 107.5,242.5C 95.5,242.5 83.5,242.5 71.5,242.5C 71.5,255.167 71.5,267.833 71.5,280.5C 70.5045,267.677 70.1712,254.677 70.5,241.5C 83.1667,241.5 95.8333,241.5 108.5,241.5C 108.829,254.677 108.495,267.677 107.5,280.5 Z M 107.5,280.5 C 95.5,280.5 83.5,280.5 71.5,280.5C 71.5,267.833 71.5,255.167 71.5,242.5C 83.5,242.5 95.5,242.5 107.5,242.5C 107.5,255.167 107.5,267.833 107.5,280.5 Z"/></g>
<g><path style="opacity:1" fill="#90aafe" d="M 1295.5,248.5 C 1296.45,249.919 1296.78,251.585 1296.5,253.5C 1295.21,253.737 1294.21,253.404 1293.5,252.5C 1295.18,251.817 1295.84,250.483 1295.5,248.5 Z"/></g>
<g><path style="opacity:1" fill="#8696fe" d="M 414.5,255.5 C 414.573,257.027 413.906,258.027 412.5,258.5C 412.427,256.973 413.094,255.973 414.5,255.5 Z"/></g>
<g><path style="opacity:1" fill="#3a6dfe" d="M 1080.5,255.5 C 1081.43,256.568 1081.77,257.901 1081.5,259.5C 1061.66,259.83 1041.99,259.497 1022.5,258.5C 1041.83,258.5 1061.17,258.5 1080.5,258.5C 1080.5,257.5 1080.5,256.5 1080.5,255.5 Z"/></g>
<g><path style="opacity:1" fill="#8999fe" d="M 412.5,258.5 C 412.573,260.027 411.906,261.027 410.5,261.5C 410.427,259.973 411.094,258.973 412.5,258.5 Z"/></g>
<g><path style="opacity:1" fill="#8796ff" d="M 410.5,261.5 C 410.573,263.027 409.906,264.027 408.5,264.5C 408.427,262.973 409.094,261.973 410.5,261.5 Z"/></g>
<g><path style="opacity:1" fill="#2f60fe" d="M 588.5,271.5 C 585.833,271.5 583.167,271.5 580.5,271.5C 580.5,291.5 580.5,311.5 580.5,331.5C 570.833,331.5 561.167,331.5 551.5,331.5C 551.5,331.167 551.5,330.833 551.5,330.5C 560.833,330.5 570.167,330.5 579.5,330.5C 579.5,310.5 579.5,290.5 579.5,270.5C 582.713,270.19 585.713,270.523 588.5,271.5 Z"/></g>
<g><path style="opacity:1" fill="#a5bdfe" d="M 1153.5,271.5 C 1151.84,291.312 1150.84,311.312 1150.5,331.5C 1150.5,331.167 1150.5,330.833 1150.5,330.5C 1150.5,310.5 1150.5,290.5 1150.5,270.5C 1151.79,270.263 1152.79,270.596 1153.5,271.5 Z"/></g>
<g><path style="opacity:1" fill="#6b90fe" d="M 724.5,274.5 C 725.809,276.571 726.475,279.071 726.5,282C 726.497,284.69 726.164,287.19 725.5,289.5C 725.779,284.405 725.445,279.405 724.5,274.5 Z"/></g>
<g><path style="opacity:1" fill="#6c75fe" d="M 401.5,272.5 C 399.167,276.833 395.833,280.167 391.5,282.5C 394.5,278.833 397.833,275.5 401.5,272.5 Z"/></g>
<g><path style="opacity:1" fill="#7f8bff" d="M 1085.5,301.5 C 1083.83,302.167 1082.17,302.833 1080.5,303.5C 1081.51,301.661 1083.01,300.328 1085,299.5C 1085.46,300.094 1085.63,300.761 1085.5,301.5 Z"/></g>
<g><path style="opacity:1" fill="#97b2fe" d="M 147.5,317.5 C 135.167,317.5 122.833,317.5 110.5,317.5C 110.5,330.167 110.5,342.833 110.5,355.5C 122.833,355.5 135.167,355.5 147.5,355.5C 135.011,356.495 122.344,356.829 109.5,356.5C 109.5,343.167 109.5,329.833 109.5,316.5C 122.344,316.171 135.011,316.505 147.5,317.5 Z"/></g>
<g><path style="opacity:1" fill="#8898fe" d="M 1328.5,318.5 C 1329.91,318.973 1330.57,319.973 1330.5,321.5C 1329.09,321.027 1328.43,320.027 1328.5,318.5 Z"/></g>
<g><path style="opacity:1" fill="#949cff" d="M 1304.5,328.5 C 1306.03,328.427 1307.03,329.094 1307.5,330.5C 1305.97,330.573 1304.97,329.906 1304.5,328.5 Z"/></g>
<g><path style="opacity:1" fill="#959aff" d="M 782.5,341.5 C 781.5,341.5 780.5,341.5 779.5,341.5C 780.5,338.833 781.5,338.833 782.5,341.5 Z"/></g>
<g><path style="opacity:1" fill="#7488fe" d="M 185.5,393.5 C 173.011,394.495 160.344,394.829 147.5,394.5C 147.5,406.167 147.5,417.833 147.5,429.5C 146.505,417.678 146.172,405.678 146.5,393.5C 159.5,393.5 172.5,393.5 185.5,393.5 Z"/></g>
<g><path style="opacity:1" fill="#d0dbfe" d="M 107.5,391.5 C 108.495,404.323 108.829,417.323 108.5,430.5C 95.6557,430.829 82.989,430.495 70.5,429.5C 82.8333,429.5 95.1667,429.5 107.5,429.5C 107.5,416.833 107.5,404.167 107.5,391.5 Z"/></g>
</svg>
