<?xml version="1.0" encoding="UTF-8"?>
<svg id="Layer_1" xmlns="http://www.w3.org/2000/svg" version="1.1" viewBox="0 0 1080 321">
  <!-- Generator: Adobe Illustrator 29.0.1, SVG Export Plug-In . SVG Version: 2.1.0 Build 192)  -->
  <defs>
    <style>
      .st0 {
        fill: #4d4d4f;
      }

      .st1 {
        fill: #231f20;
      }

      .st2 {
        fill: #fff;
      }

      .st3 {
        fill: #f66100;
      }
    </style>
  </defs>
  <g>
    <g>
      <path class="st2" d="M30.8,732.4v-179.6h25.1v28.9l-3.9-2.2c1-4.8,3.7-9.4,8.2-13.9,4.5-4.4,10-8,16.5-10.8,6.5-2.8,13.2-4.2,20.1-4.2,11.4,0,21.5,2.8,30.4,8.4,8.8,5.6,15.8,13.3,21,23.1,5.1,9.8,7.7,21.1,7.7,33.7s-2.5,23.7-7.6,33.6c-5.1,9.9-12,17.7-20.9,23.4-8.8,5.7-18.8,8.6-29.9,8.6s-14.5-1.5-21.5-4.5c-6.9-3-12.8-6.8-17.6-11.5-4.8-4.7-7.8-9.5-8.9-14.5l6.3-3.4v84.6h-25.1ZM93.4,658.7c7.4,0,14-1.8,19.8-5.5,5.8-3.7,10.4-8.8,13.7-15.2,3.4-6.4,5.1-13.7,5.1-21.9s-1.7-15.5-4.9-21.8c-3.3-6.3-7.8-11.4-13.6-15.1-5.8-3.7-12.5-5.5-20-5.5s-14.2,1.8-20,5.4c-5.8,3.6-10.4,8.6-13.7,15.1-3.4,6.4-5.1,13.7-5.1,21.9s1.7,15.5,5.1,21.9c3.4,6.4,8,11.5,13.7,15.2,5.8,3.7,12.5,5.5,20,5.5Z"/>
      <path class="st2" d="M226.7,681.8c-10.4,0-20-2.9-28.6-8.7-8.6-5.8-15.5-13.7-20.6-23.6-5.1-10-7.7-21.2-7.7-33.7s2.6-24,7.8-33.9c5.2-9.9,12.3-17.6,21.2-23.3,8.9-5.6,18.9-8.4,30-8.4s12.6,1,18.1,2.9c5.5,1.9,10.2,4.6,14.3,8.1,4.1,3.5,7.5,7.4,10.1,11.9,2.7,4.5,4.3,9.3,4.9,14.5l-5.5-1.9v-32.8h25.1v126.6h-25.1v-30.1l5.8-1.7c-1,4.3-2.9,8.6-5.9,12.7-3,4.1-6.7,7.8-11.3,11-4.6,3.2-9.6,5.8-15.2,7.7-5.5,1.9-11.4,2.9-17.5,2.9ZM233.2,658.9c7.6,0,14.2-1.8,20-5.5,5.8-3.7,10.3-8.8,13.6-15.3,3.3-6.5,4.9-13.9,4.9-22.3s-1.6-15.5-4.9-21.9c-3.3-6.4-7.8-11.5-13.6-15.2-5.8-3.7-12.5-5.5-20-5.5s-13.9,1.8-19.6,5.5c-5.7,3.7-10.2,8.8-13.5,15.2-3.3,6.4-4.9,13.7-4.9,21.9s1.6,15.8,4.9,22.3c3.3,6.5,7.8,11.6,13.5,15.3,5.7,3.7,12.3,5.5,19.6,5.5Z"/>
      <path class="st2" d="M377.6,734.8c-9,0-18-1.4-26.9-4.2-8.9-2.8-16.1-6.5-21.6-11l9.2-19.3c3.2,2.4,7,4.5,11.3,6.4,4.3,1.8,8.9,3.3,13.7,4.3,4.8,1,9.6,1.6,14.2,1.6,8.8,0,16.2-1.4,22.2-4.3,5.9-2.9,10.4-7.2,13.5-12.8,3.1-5.6,4.6-12.6,4.6-21v-24.3l2.7,1.7c-.8,5-3.4,9.8-7.8,14.3-4.4,4.6-9.9,8.3-16.5,11.2-6.6,2.9-13.3,4.3-20.2,4.3-12.1,0-22.8-2.9-32.2-8.6-9.4-5.7-16.8-13.5-22.3-23.4-5.5-9.9-8.2-21.2-8.2-33.9s2.7-24,8.1-33.9c5.4-9.9,12.8-17.7,22.2-23.4,9.4-5.7,20-8.6,31.7-8.6s9.5.6,14,1.8c4.5,1.2,8.7,2.9,12.5,5.1s7.3,4.5,10.4,7.1c3.1,2.6,5.5,5.3,7.5,8.2,1.9,2.9,3.1,5.6,3.6,8.2l-5.3,1.9v-29.7h24.8v118.8c0,10.1-1.5,19.1-4.5,26.9-3,7.8-7.3,14.4-12.9,19.8-5.6,5.4-12.5,9.5-20.5,12.3-8,2.8-17.1,4.2-27.2,4.2ZM378.6,658.9c7.9,0,14.9-1.8,21-5.5,6.1-3.7,10.8-8.8,14.2-15.2,3.4-6.4,5.1-13.8,5.1-22.2s-1.7-15.8-5.2-22.3c-3.5-6.5-8.2-11.6-14.2-15.3-6-3.7-13-5.5-20.9-5.5s-14.6,1.9-20.6,5.7c-6,3.8-10.8,8.9-14.2,15.4-3.5,6.5-5.2,13.9-5.2,22.1s1.7,15.5,5.2,22.1c3.5,6.5,8.2,11.6,14.2,15.3,6,3.7,12.9,5.5,20.6,5.5Z"/>
      <path class="st2" d="M510.2,681.8c-9,0-16.8-2.1-23.5-6.3-6.7-4.2-11.8-10-15.4-17.6-3.6-7.6-5.4-16.6-5.4-27v-78.1h24.8v71.4c0,7.4,1.2,13.8,3.5,19.2,2.3,5.4,5.7,9.5,10.1,12.4,4.4,2.9,9.8,4.3,16,4.3s8.9-.8,12.8-2.3c3.9-1.5,7.2-3.7,10-6.4,2.8-2.7,5-6,6.6-9.9,1.6-3.9,2.4-8,2.4-12.5v-76.2h24.8v126.6h-24.8v-26.5l4.3-2.9c-1.9,5.9-5.2,11.3-9.8,16.2s-10,8.6-16.3,11.4c-6.3,2.8-13,4.2-20.2,4.2Z"/>
      <path class="st2" d="M661.1,681.8c-13,0-24.6-2.8-34.6-8.3-10-5.5-17.9-13.1-23.6-22.8-5.7-9.6-8.6-20.7-8.6-33.3s1.6-19,4.8-27.2c3.2-8.2,7.7-15.3,13.4-21.3,5.7-6,12.5-10.7,20.5-14,8-3.3,16.6-4.9,25.9-4.9s15.8,1.6,22.9,4.7c7.1,3.1,13.2,7.4,18.4,12.9,5.2,5.5,9.2,11.9,12.1,19.4,2.8,7.5,4.1,15.6,4,24.5l-.2,10.6h-103.4l-5.5-19.8h87.5l-3.6,4.1v-5.8c-.5-5.3-2.3-10-5.3-14.2-3.1-4.2-6.9-7.5-11.6-9.9-4.7-2.4-9.7-3.6-15.2-3.6-8.7,0-16,1.6-21.9,4.9-5.9,3.3-10.4,8.1-13.5,14.5-3.1,6.4-4.6,14.2-4.6,23.5s1.8,16.5,5.5,23c3.7,6.5,8.9,11.5,15.7,15.1,6.7,3.5,14.5,5.3,23.4,5.3s12.1-1,17.5-3.1c5.4-2.1,11.2-5.9,17.5-11.3l12.5,17.6c-3.9,3.9-8.6,7.2-14.1,10.1-5.5,2.9-11.4,5.2-17.6,6.9-6.2,1.7-12.3,2.5-18.2,2.5Z"/>
    </g>
    <g>
      <path class="st2" d="M934,524.9c-5.3,0-9.4-1.4-12.3-4.1-2.9-2.7-4.3-6.6-4.3-11.6s1.5-8.4,4.5-11.3c3-2.9,7-4.3,12.2-4.3s9.4,1.4,12.3,4.1c2.9,2.7,4.3,6.6,4.3,11.6s-1.5,8.4-4.5,11.3c-3,2.9-7,4.3-12.2,4.3ZM922,679.4v-126.6h24.8v126.6h-24.8Z"/>
      <path class="st2" d="M969.5,576.9v-24.1h80.5v24.1h-80.5ZM995.7,679.4v-158.9h24.8v158.9h-24.8Z"/>
    </g>
    <g>
      <polyline class="st3" points="751.6 732.1 796.9 732.1 796.9 706.3 751.6 706.3 751.6 706.2"/>
      <g>
        <path class="st2" d="M891.7,602.5c-4.6-8.1-10.8-14.5-18.5-19.3-7.7-4.7-16.3-7.1-25.7-7.1h-70.8v81.4h-50.4v25.8h50.4v.2h70.8c9.4,0,18-2.4,25.7-7.3,7.7-4.9,13.9-11.4,18.5-19.5,4.6-8.1,7-17.1,7-27.1s-2.3-19-7-27.1ZM868,643.6c-2.2,4.2-5.2,7.6-8.8,10.2-3.6,2.6-7.7,3.9-12.2,3.9h-5.7c0-.1-37.8-.1-37.8-.1v-55.5h43.5c4.5,0,8.5,1.2,12.2,3.7,3.6,2.5,6.6,5.8,8.8,9.9,2.2,4.1,3.4,8.8,3.4,13.9s-1.1,9.8-3.4,14Z"/>
        <path class="st3" d="M776.7,732.1v-237.6h70.8c9.4,0,18,2.4,25.7,7.1,7.7,4.7,13.9,11.1,18.5,19.3,4.6,8.1,7,17.1,7,27.1s-2.3,19-7,27.1c-4.6,8.1-10.8,14.6-18.5,19.5-7.7,4.9-16.3,7.3-25.7,7.3h-44v130.2h-26.8ZM803.5,576.1h43.5c4.5,0,8.5-1.3,12.2-3.9,3.6-2.6,6.6-6,8.8-10.2,2.2-4.2,3.4-8.9,3.4-14s-1.1-9.8-3.4-13.9c-2.2-4.1-5.2-7.5-8.8-9.9-3.6-2.5-7.7-3.7-12.2-3.7h-43.5v55.7Z"/>
      </g>
      <polyline class="st2" points="726.3 683.2 726.3 732.1 752.1 732.1 752.1 683.2 752.3 683.2"/>
    </g>
  </g>
  <g>
    <path class="st0" d="M30.8,289.7V110.1h25.1v28.9l-3.9-2.2c1-4.8,3.7-9.4,8.2-13.9,4.5-4.4,10-8,16.5-10.8,6.5-2.8,13.2-4.2,20.1-4.2,11.4,0,21.5,2.8,30.4,8.4,8.8,5.6,15.8,13.3,21,23.1,5.1,9.8,7.7,21.1,7.7,33.7s-2.5,23.7-7.6,33.6c-5.1,9.9-12,17.7-20.9,23.4-8.8,5.7-18.8,8.6-29.9,8.6s-14.5-1.5-21.5-4.5c-6.9-3-12.8-6.8-17.6-11.5-4.8-4.7-7.8-9.5-8.9-14.5l6.3-3.4v84.6h-25.1ZM93.4,215.9c7.4,0,14-1.8,19.8-5.5,5.8-3.7,10.4-8.8,13.7-15.2,3.4-6.4,5.1-13.7,5.1-21.9s-1.7-15.5-4.9-21.8c-3.3-6.3-7.8-11.4-13.6-15.1-5.8-3.7-12.5-5.5-20-5.5s-14.2,1.8-20,5.4c-5.8,3.6-10.4,8.6-13.7,15.1-3.4,6.4-5.1,13.7-5.1,21.9s1.7,15.5,5.1,21.9c3.4,6.4,8,11.5,13.7,15.2,5.8,3.7,12.5,5.5,20,5.5Z"/>
    <path class="st0" d="M226.7,239.1c-10.4,0-20-2.9-28.6-8.7-8.6-5.8-15.5-13.7-20.6-23.6-5.1-10-7.7-21.2-7.7-33.7s2.6-24,7.8-33.9c5.2-9.9,12.3-17.6,21.2-23.3,8.9-5.6,18.9-8.4,30-8.4s12.6,1,18.1,2.9c5.5,1.9,10.2,4.6,14.3,8.1,4.1,3.5,7.5,7.4,10.1,11.9,2.7,4.5,4.3,9.3,4.9,14.5l-5.5-1.9v-32.8h25.1v126.6h-25.1v-30.1l5.8-1.7c-1,4.3-2.9,8.6-5.9,12.7-3,4.1-6.7,7.8-11.3,11-4.6,3.2-9.6,5.8-15.2,7.7-5.5,1.9-11.4,2.9-17.5,2.9ZM233.2,216.2c7.6,0,14.2-1.8,20-5.5,5.8-3.7,10.3-8.8,13.6-15.3,3.3-6.5,4.9-13.9,4.9-22.3s-1.6-15.5-4.9-21.9c-3.3-6.4-7.8-11.5-13.6-15.2-5.8-3.7-12.5-5.5-20-5.5s-13.9,1.8-19.6,5.5c-5.7,3.7-10.2,8.8-13.5,15.2-3.3,6.4-4.9,13.7-4.9,21.9s1.6,15.8,4.9,22.3c3.3,6.5,7.8,11.6,13.5,15.3,5.7,3.7,12.3,5.5,19.6,5.5Z"/>
    <path class="st0" d="M377.6,292.1c-9,0-18-1.4-26.9-4.2-8.9-2.8-16.1-6.5-21.6-11l9.2-19.3c3.2,2.4,7,4.5,11.3,6.4,4.3,1.8,8.9,3.3,13.7,4.3,4.8,1,9.6,1.6,14.2,1.6,8.8,0,16.2-1.4,22.2-4.3,5.9-2.9,10.4-7.2,13.5-12.8,3.1-5.6,4.6-12.6,4.6-21v-24.3l2.7,1.7c-.8,5-3.4,9.8-7.8,14.3-4.4,4.6-9.9,8.3-16.5,11.2-6.6,2.9-13.3,4.3-20.2,4.3-12.1,0-22.8-2.9-32.2-8.6-9.4-5.7-16.8-13.5-22.3-23.4-5.5-9.9-8.2-21.2-8.2-33.9s2.7-24,8.1-33.9c5.4-9.9,12.8-17.7,22.2-23.4,9.4-5.7,20-8.6,31.7-8.6s9.5.6,14,1.8c4.5,1.2,8.7,2.9,12.5,5.1s7.3,4.5,10.4,7.1c3.1,2.6,5.5,5.3,7.5,8.2,1.9,2.9,3.1,5.6,3.6,8.2l-5.3,1.9v-29.7h24.8v118.8c0,10.1-1.5,19.1-4.5,26.9-3,7.8-7.3,14.4-12.9,19.8-5.6,5.4-12.5,9.5-20.5,12.3-8,2.8-17.1,4.2-27.2,4.2ZM378.6,216.2c7.9,0,14.9-1.8,21-5.5,6.1-3.7,10.8-8.8,14.2-15.2,3.4-6.4,5.1-13.8,5.1-22.2s-1.7-15.8-5.2-22.3c-3.5-6.5-8.2-11.6-14.2-15.3-6-3.7-13-5.5-20.9-5.5s-14.6,1.9-20.6,5.7c-6,3.8-10.8,8.9-14.2,15.4-3.5,6.5-5.2,13.9-5.2,22.1s1.7,15.5,5.2,22.1c3.5,6.5,8.2,11.6,14.2,15.3,6,3.7,12.9,5.5,20.6,5.5Z"/>
    <path class="st0" d="M510.2,239.1c-9,0-16.8-2.1-23.5-6.3-6.7-4.2-11.8-10-15.4-17.6-3.6-7.6-5.4-16.6-5.4-27v-78.1h24.8v71.4c0,7.4,1.2,13.8,3.5,19.2,2.3,5.4,5.7,9.5,10.1,12.4,4.4,2.9,9.8,4.3,16,4.3s8.9-.8,12.8-2.3c3.9-1.5,7.2-3.7,10-6.4,2.8-2.7,5-6,6.6-9.9,1.6-3.9,2.4-8,2.4-12.5v-76.2h24.8v126.6h-24.8v-26.5l4.3-2.9c-1.9,5.9-5.2,11.3-9.8,16.2s-10,8.6-16.3,11.4c-6.3,2.8-13,4.2-20.2,4.2Z"/>
    <path class="st0" d="M661.1,239.1c-13,0-24.6-2.8-34.6-8.3-10-5.5-17.9-13.1-23.6-22.8-5.7-9.6-8.6-20.7-8.6-33.3s1.6-19,4.8-27.2c3.2-8.2,7.7-15.3,13.4-21.3,5.7-6,12.5-10.7,20.5-14,8-3.3,16.6-4.9,25.9-4.9s15.8,1.6,22.9,4.7c7.1,3.1,13.2,7.4,18.4,12.9,5.2,5.5,9.2,11.9,12.1,19.4,2.8,7.5,4.1,15.6,4,24.5l-.2,10.6h-103.4l-5.5-19.8h87.5l-3.6,4.1v-5.8c-.5-5.3-2.3-10-5.3-14.2-3.1-4.2-6.9-7.5-11.6-9.9-4.7-2.4-9.7-3.6-15.2-3.6-8.7,0-16,1.6-21.9,4.9-5.9,3.3-10.4,8.1-13.5,14.5-3.1,6.4-4.6,14.2-4.6,23.5s1.8,16.5,5.5,23c3.7,6.5,8.9,11.5,15.7,15.1,6.7,3.5,14.5,5.3,23.4,5.3s12.1-1,17.5-3.1c5.4-2.1,11.2-5.9,17.5-11.3l12.5,17.6c-3.9,3.9-8.6,7.2-14.1,10.1-5.5,2.9-11.4,5.2-17.6,6.9-6.2,1.7-12.3,2.5-18.2,2.5Z"/>
  </g>
  <g>
    <path class="st0" d="M934,82.1c-5.3,0-9.4-1.4-12.3-4.1-2.9-2.7-4.3-6.6-4.3-11.6s1.5-8.4,4.5-11.3c3-2.9,7-4.3,12.2-4.3s9.4,1.4,12.3,4.1c2.9,2.7,4.3,6.6,4.3,11.6s-1.5,8.4-4.5,11.3c-3,2.9-7,4.3-12.2,4.3ZM922,236.7v-126.6h24.8v126.6h-24.8Z"/>
    <path class="st0" d="M969.5,134.2v-24.1h80.5v24.1h-80.5ZM995.7,236.7V77.8h24.8v158.9h-24.8Z"/>
  </g>
  <polyline class="st3" points="751.6 289.4 796.9 289.4 796.9 263.6 751.6 263.6 751.6 263.4"/>
  <path class="st0" d="M891.7,159.7c-4.6-8.1-10.8-14.5-18.5-19.3-7.7-4.7-16.3-7.1-25.7-7.1h-70.8v81.4h-50.4v25.8h50.4v.2h70.8c9.4,0,18-2.4,25.7-7.3,7.7-4.9,13.9-11.4,18.5-19.5,4.6-8.1,7-17.1,7-27.1s-2.3-19-7-27.1ZM868,200.9c-2.2,4.2-5.2,7.6-8.8,10.2-3.6,2.6-7.7,3.9-12.2,3.9h-5.7c0-.1-37.8-.1-37.8-.1v-55.5h43.5c4.5,0,8.5,1.2,12.2,3.7,3.6,2.5,6.6,5.8,8.8,9.9,2.2,4.1,3.4,8.8,3.4,13.9s-1.1,9.8-3.4,14Z"/>
  <path class="st3" d="M776.7,289.4V51.9h70.8c9.4,0,18,2.4,25.7,7.1,7.7,4.7,13.9,11.1,18.5,19.3,4.6,8.1,7,17.1,7,27.1s-2.3,19-7,27.1c-4.6,8.1-10.8,14.6-18.5,19.5-7.7,4.9-16.3,7.3-25.7,7.3h-44v130.2h-26.8ZM803.5,133.4h43.5c4.5,0,8.5-1.3,12.2-3.9,3.6-2.6,6.6-6,8.8-10.2,2.2-4.2,3.4-8.9,3.4-14s-1.1-9.8-3.4-13.9c-2.2-4.1-5.2-7.5-8.8-9.9-3.6-2.5-7.7-3.7-12.2-3.7h-43.5v55.7Z"/>
  <polyline class="st0" points="726.3 240.5 726.3 289.4 752.1 289.4 752.1 240.5 752.3 240.5"/>
  <g>
    <polyline class="st3" points="1283.6 745.9 1341 745.9 1341 713.1 1283.6 713.1 1283.6 712.9"/>
    <g>
      <path class="st2" d="M1461.3,581.4c-5.9-10.3-13.7-18.4-23.5-24.4-9.8-6-20.6-9-32.6-9h-89.8v103.2h-63.9v32.7h63.9v.2h89.8c12,0,22.8-3.1,32.6-9.3,9.8-6.2,17.6-14.4,23.5-24.7,5.9-10.3,8.8-21.7,8.8-34.4s-2.9-24.1-8.8-34.4ZM1431.2,633.6c-2.8,5.4-6.6,9.7-11.2,12.9-4.6,3.3-9.8,4.9-15.4,4.9h-7.2v-.2h-48v-70.4h55.2c5.7,0,10.8,1.6,15.4,4.7,4.6,3.2,8.4,7.4,11.2,12.6,2.8,5.3,4.3,11.1,4.3,17.6s-1.4,12.4-4.3,17.8Z"/>
      <path class="st3" d="M1315.4,745.9v-301.3h89.8c12,0,22.8,3,32.6,9,9.8,6,17.6,14.1,23.5,24.4,5.9,10.3,8.8,21.7,8.8,34.4s-2.9,24.1-8.8,34.4c-5.9,10.3-13.7,18.5-23.5,24.7-9.8,6.2-20.6,9.3-32.6,9.3h-55.8v165.1h-34ZM1349.4,548h55.2c5.7,0,10.8-1.6,15.4-4.9,4.6-3.3,8.4-7.6,11.2-12.9,2.8-5.4,4.3-11.3,4.3-17.8s-1.4-12.4-4.3-17.6c-2.8-5.2-6.6-9.5-11.2-12.6-4.6-3.2-9.8-4.7-15.4-4.7h-55.2v70.6Z"/>
    </g>
    <polyline class="st2" points="1251.5 683.8 1251.5 745.9 1284.2 745.9 1284.2 683.8 1284.4 683.8"/>
  </g>
  <g>
    <polyline class="st3" points="1283.6 312.2 1341 312.2 1341 279.4 1283.6 279.4 1283.6 279.2"/>
    <g>
      <path class="st0" d="M1461.3,147.7c-5.9-10.3-13.7-18.4-23.5-24.4-9.8-6-20.6-9-32.6-9h-89.8v103.2h-63.9v32.7h63.9v.2h89.8c12,0,22.8-3.1,32.6-9.3,9.8-6.2,17.6-14.4,23.5-24.7,5.9-10.3,8.8-21.7,8.8-34.4s-2.9-24.1-8.8-34.4ZM1431.2,199.9c-2.8,5.4-6.6,9.7-11.2,12.9-4.6,3.3-9.8,4.9-15.4,4.9h-7.2v-.2h-48v-70.4h55.2c5.7,0,10.8,1.6,15.4,4.7,4.6,3.2,8.4,7.4,11.2,12.6,2.8,5.3,4.3,11.1,4.3,17.6s-1.4,12.4-4.3,17.8Z"/>
      <path class="st3" d="M1315.4,312.2V10.9h89.8c12,0,22.8,3,32.6,9,9.8,6,17.6,14.1,23.5,24.4,5.9,10.3,8.8,21.7,8.8,34.4s-2.9,24.1-8.8,34.4c-5.9,10.3-13.7,18.5-23.5,24.7-9.8,6.2-20.6,9.3-32.6,9.3h-55.8v165.1h-34ZM1349.4,114.3h55.2c5.7,0,10.8-1.6,15.4-4.9,4.6-3.3,8.4-7.6,11.2-12.9,2.8-5.4,4.3-11.3,4.3-17.8s-1.4-12.4-4.3-17.6c-2.8-5.2-6.6-9.5-11.2-12.6-4.6-3.2-9.8-4.7-15.4-4.7h-55.2v70.6Z"/>
    </g>
    <polyline class="st0" points="1251.5 250.1 1251.5 312.2 1284.2 312.2 1284.2 250.1 1284.4 250.1"/>
  </g>
  <g>
    <path class="st3" d="M-1482.9,812.7v-174.1h28.2l.5,28-4.9-2.1c.9-4.8,3.6-9.4,7.9-13.6,4.3-4.3,9.7-7.7,16-10.4,6.3-2.6,12.9-4,19.7-4,10.9,0,20.5,2.7,29,8.2,8.5,5.4,15.1,12.9,20,22.4,4.9,9.5,7.3,20.4,7.3,32.9s-2.4,23.2-7.3,32.7c-4.9,9.6-11.6,17.1-20,22.6-8.5,5.5-18,8.3-28.6,8.3s-14-1.4-20.6-4.2c-6.6-2.8-12.2-6.4-16.8-11-4.6-4.5-7.4-9.2-8.5-14.2l7-3.3v81.8h-28.9ZM-1420.9,738.1c6.5,0,12.4-1.6,17.5-4.9s9.1-7.8,12-13.5c2.9-5.7,4.3-12.4,4.3-19.8s-1.4-14-4.2-19.7c-2.8-5.7-6.8-10.1-11.9-13.4-5.1-3.3-11-4.9-17.7-4.9s-12.8,1.6-17.8,4.8c-5.1,3.2-9.1,7.7-12,13.4-3,5.8-4.4,12.4-4.4,19.8s1.5,14.1,4.4,19.8c2.9,5.8,7,10.3,12,13.5,5,3.3,11,4.9,17.8,4.9Z"/>
    <path class="st3" d="M-1291.8,763.7c-10.1,0-19.3-2.8-27.5-8.4-8.2-5.6-14.8-13.2-19.8-22.8-5-9.6-7.5-20.6-7.5-32.9s2.5-23.2,7.5-32.9c5-9.6,11.7-17.2,20.3-22.6,8.5-5.4,18.2-8.2,28.9-8.2s11.9.9,17,2.7c5.1,1.8,9.6,4.3,13.5,7.6,3.9,3.3,7.1,7,9.7,11.2,2.6,4.2,4.3,8.7,5.2,13.5l-6.3-1.6v-30.8h28.9v122.8h-29.1v-29.4l6.8-1.2c-1.1,4.2-3.1,8.3-5.9,12.2-2.9,4-6.4,7.5-10.7,10.5-4.3,3-9,5.5-14.2,7.3-5.2,1.9-10.8,2.8-16.7,2.8ZM-1283.9,738.3c6.7,0,12.6-1.6,17.7-4.9s9.1-7.8,12-13.6c2.9-5.8,4.3-12.5,4.3-20.2s-1.4-14.1-4.3-19.8c-2.9-5.7-6.9-10.3-12-13.5s-11-4.9-17.7-4.9-12.5,1.6-17.6,4.9c-5.1,3.3-9,7.8-11.8,13.5-2.8,5.8-4.2,12.4-4.2,19.8s1.4,14.3,4.2,20.2c2.8,5.8,6.7,10.4,11.8,13.6,5,3.3,10.9,4.9,17.6,4.9Z"/>
    <path class="st3" d="M-1138,815c-9.2,0-18.3-1.4-27.4-4.2s-16.4-6.4-22-11l10.3-21.2c3.3,2.3,6.9,4.3,11,6.1,4,1.7,8.4,3,12.9,4,4.6.9,9.1,1.4,13.6,1.4,8.2,0,15.1-1.3,20.6-3.8,5.5-2.6,9.7-6.4,12.5-11.7,2.8-5.2,4.2-11.7,4.2-19.5v-22.6l4.2,1.6c-.9,4.8-3.5,9.4-7.7,13.8-4.2,4.4-9.5,7.9-15.8,10.6-6.4,2.7-12.9,4.1-19.6,4.1-11.7,0-21.9-2.7-30.9-8.2-8.9-5.4-16-12.9-21.2-22.3-5.2-9.4-7.8-20.2-7.8-32.5s2.6-23.2,7.7-32.7,12.2-17.1,21.1-22.6c8.9-5.5,19-8.3,30.2-8.3s9.2.5,13.5,1.6c4.3,1.1,8.4,2.6,12,4.7,3.6,2,7,4.3,9.9,6.8,2.9,2.5,5.4,5.1,7.2,7.9,1.9,2.8,3,5.5,3.5,8.2l-6.1,1.9.5-28.4h28.2v114.4c0,9.9-1.5,18.7-4.4,26.3-3,7.6-7.2,14.1-12.8,19.5-5.6,5.4-12.4,9.4-20.3,12.1-7.9,2.7-16.9,4.1-27,4.1ZM-1136.8,738.1c7,0,13.2-1.6,18.5-4.9s9.5-7.8,12.5-13.5c2.9-5.7,4.4-12.4,4.4-19.8s-1.5-14.3-4.5-20.2c-3-5.8-7.2-10.4-12.5-13.6-5.3-3.3-11.4-4.9-18.4-4.9s-13.1,1.7-18.4,5c-5.3,3.3-9.4,7.9-12.5,13.8-3,5.8-4.5,12.5-4.5,19.9s1.5,13.9,4.5,19.7c3,5.8,7.2,10.4,12.5,13.6,5.3,3.3,11.4,4.9,18.4,4.9Z"/>
    <path class="st3" d="M-1004.2,763.7c-8.9,0-16.5-2-23.1-5.9-6.5-4-11.5-9.6-14.9-17-3.4-7.4-5.1-16.2-5.1-26.5v-75.7h28.7v69.7c0,6.5,1,12.1,3,16.7,2,4.6,5,8.1,8.9,10.6,3.9,2.5,8.5,3.7,14,3.7s7.7-.7,11.1-2c3.3-1.3,6.3-3.2,8.7-5.6,2.5-2.4,4.4-5.3,5.8-8.6,1.4-3.3,2.1-7,2.1-10.8v-73.6h28.7v122.8h-28l-.5-25.6,5.1-2.8c-1.9,5.9-5,11.2-9.4,15.7-4.4,4.6-9.7,8.2-15.7,11-6.1,2.7-12.5,4.1-19.3,4.1Z"/>
    <path class="st3" d="M-849.9,763.7c-12.9,0-24.3-2.7-34.1-8.2-9.9-5.4-17.6-12.9-23.1-22.3-5.5-9.4-8.3-20.2-8.3-32.3s1.6-18.4,4.7-26.3c3.1-7.9,7.4-14.8,12.9-20.6,5.5-5.8,12.1-10.3,19.8-13.5,7.7-3.2,16.1-4.8,25.3-4.8s15.6,1.6,22.6,4.7c7,3.1,13.1,7.3,18.2,12.7s9,11.7,11.8,19.1c2.7,7.4,4,15.4,3.8,24.1l-.2,10h-99.5l-5.4-19.6h80.9l-3.7,4v-5.1c-.5-4.8-2-9-4.7-12.7-2.6-3.6-6-6.5-10.1-8.6-4.1-2.1-8.7-3.1-13.6-3.1-7.6,0-14,1.5-19.2,4.4-5.2,3-9.1,7.2-11.8,12.7-2.6,5.5-4,12.4-4,20.6s1.7,14.8,5,20.7c3.3,5.9,8.1,10.5,14.2,13.6,6.1,3.2,13.3,4.8,21.6,4.8s11-.9,15.8-2.8c4.8-1.9,10-5.2,15.6-10l14.2,19.8c-4.2,3.9-9,7.2-14.3,9.9-5.4,2.7-11,4.9-16.9,6.4-5.9,1.6-11.7,2.3-17.5,2.3Z"/>
    <path class="st3" d="M-770.4,761.4v-163.1h69.5c10.7,0,19.8,1.6,27.2,4.7,7.4,3.1,13,7.7,16.8,13.9,3.8,6.1,5.7,13.6,5.7,22.3s-2.4,16.6-7.2,22.8c-4.8,6.2-11.6,10.5-20.3,12.8l-.2-4.7c7.3,1.6,13.7,4.3,19.1,8.3,5.4,4,9.7,8.9,12.7,14.7s4.5,12.5,4.5,19.9-1.3,14.9-3.8,21c-2.6,6.1-6.3,11.1-11.3,15.1-5,4-10.9,7.1-17.7,9.2-6.8,2.1-14.5,3.1-23.1,3.1h-71.8ZM-740.8,665.2h37.1c4.5,0,8.4-.9,11.8-2.6,3.3-1.7,5.9-4,7.8-7,1.9-2.9,2.8-6.4,2.8-10.3,0-6.2-2.1-11.1-6.3-14.6s-10.3-5.2-18.4-5.2h-34.7v39.6ZM-740.8,734.1h40.8c5.7,0,10.6-.9,14.6-2.6,4-1.7,7-4.2,9.1-7.6,2.1-3.3,3.1-7.3,3.1-12s-1.1-8.1-3.4-11.2c-2.3-3.1-5.5-5.5-9.7-7.1-4.2-1.6-9.2-2.4-14.9-2.4h-39.6v42.9Z"/>
    <path class="st3" d="M-602.6,612.5c-5.8,0-10.2-1.4-13.4-4.3-3.2-2.9-4.8-7-4.8-12.2s1.6-9,4.9-12.1c3.3-3.1,7.7-4.7,13.3-4.7s10.4,1.4,13.6,4.3c3.2,2.9,4.8,7,4.8,12.5s-1.6,8.8-4.9,11.9c-3.3,3.1-7.8,4.7-13.5,4.7ZM-616.6,761.4v-122.8h28.7v122.8h-28.7Z"/>
    <path class="st3" d="M-567.2,665.2v-26.6h79.7v26.6h-79.7ZM-543,761.4v-154.1h28.7v154.1h-28.7Z"/>
  </g>
  <g>
    <path class="st1" d="M127.2,948.7c-8.8-5.6-19-8.4-30.4-8.4s-13.6,1.4-20.1,4.2c-6.5,2.8-12,6.4-16.5,10.8-1.7,1.7-3.1,3.4-4.3,5.1v-18h-25.1v179.6h25.1v-69.6c.8.9,1.7,1.9,2.7,2.8,4.8,4.7,10.7,8.5,17.6,11.5,6.9,3,14.1,4.5,21.5,4.5,11.1,0,21.1-2.9,29.9-8.6,8.8-5.7,15.8-13.5,20.9-23.4,5.1-9.9,7.6-21.1,7.6-33.6s-2.6-23.9-7.7-33.7c-5.1-9.8-12.1-17.5-21-23.1ZM126.9,1027.6c-3.4,6.4-8,11.5-13.7,15.2-5.8,3.7-12.4,5.5-19.8,5.5s-14.2-1.8-20-5.5c-5.8-3.7-10.4-8.8-13.7-15.2-3.4-6.4-5.1-13.7-5.1-21.9s1.7-15.5,5.1-21.9c3.4-6.4,8-11.5,13.7-15.1,5.8-3.6,12.5-5.4,20-5.4s14.2,1.8,20,5.5c5.8,3.7,10.3,8.7,13.6,15.1,3.3,6.4,4.9,13.6,4.9,21.8s-1.7,15.5-5.1,21.9Z"/>
    <path class="st1" d="M270.9,961.7c-2.6-4.1-5.7-7.8-9.5-11-4.1-3.5-8.9-6.1-14.3-8.1-5.5-1.9-11.5-2.9-18.1-2.9-11.1,0-21.1,2.8-30,8.4-8.9,5.6-16,13.4-21.2,23.3-5.2,9.9-7.8,21.2-7.8,33.9s2.6,23.8,7.7,33.7c5.1,10,12,17.8,20.6,23.6,8.6,5.8,18.1,8.7,28.6,8.7s11.9-1,17.5-2.9c5.5-1.9,10.6-4.5,15.2-7.7,4.6-3.2,8.4-6.9,11.3-11,0,0,0-.1.1-.2v19.3h25.1v-126.6h-25.1v19.3ZM266.9,1027.7c-3.3,6.5-7.8,11.6-13.6,15.3-5.8,3.7-12.5,5.5-20,5.5s-13.9-1.8-19.6-5.5c-5.7-3.7-10.2-8.8-13.5-15.3-3.3-6.5-4.9-13.9-4.9-22.3s1.6-15.5,4.9-21.9c3.3-6.4,7.8-11.5,13.5-15.2,5.7-3.7,12.3-5.5,19.6-5.5s14.2,1.8,20,5.5c5.8,3.7,10.3,8.8,13.6,15.2,3.3,6.4,4.9,13.7,4.9,21.9s-1.6,15.8-4.9,22.3Z"/>
    <path class="st1" d="M417.9,959.7c-1.6-2.1-3.6-4-5.8-5.9-3.1-2.6-6.5-4.9-10.4-7.1-3.9-2.2-8-3.9-12.5-5.1-4.5-1.2-9.2-1.8-14-1.8-11.7,0-22.3,2.9-31.7,8.6-9.4,5.7-16.8,13.5-22.2,23.4-5.4,9.9-8.1,21.2-8.1,33.9s2.7,24,8.2,33.9c5.5,9.9,12.9,17.7,22.3,23.4,9.4,5.7,20.1,8.6,32.2,8.6s13.7-1.4,20.2-4.3c6.6-2.9,12.1-6.6,16.5-11.2,2.2-2.2,3.9-4.5,5.2-6.9v15.2c0,8.4-1.5,15.3-4.6,21-3.1,5.6-7.6,9.9-13.5,12.8-5.9,2.9-13.3,4.3-22.2,4.3s-9.4-.5-14.2-1.6c-4.8-1-9.4-2.5-13.7-4.3-4.3-1.8-8.1-4-11.3-6.4l-9.2,19.3c5.5,4.5,12.7,8.2,21.6,11,8.9,2.8,17.9,4.2,26.9,4.2s19.2-1.4,27.2-4.2c8-2.8,14.9-6.9,20.5-12.3,5.6-5.4,9.9-12,12.9-19.8,3-7.8,4.5-16.8,4.5-26.9v-118.8h-24.8v17.2ZM399.6,1043c-6.1,3.7-13.1,5.5-21,5.5s-14.6-1.8-20.6-5.5c-6-3.7-10.8-8.8-14.2-15.3-3.5-6.5-5.2-13.9-5.2-22.1s1.7-15.5,5.2-22.1c3.5-6.5,8.2-11.6,14.2-15.4,6-3.8,12.9-5.7,20.6-5.7s14.8,1.8,20.9,5.5c6,3.7,10.8,8.8,14.2,15.3,3.5,6.5,5.2,13.9,5.2,22.3s-1.7,15.8-5.1,22.2c-3.4,6.4-8.1,11.5-14.2,15.2Z"/>
    <path class="st1" d="M552.2,1018.6c0,4.5-.8,8.7-2.4,12.5-1.6,3.9-3.8,7.2-6.6,9.9-2.8,2.7-6.1,4.9-10,6.4-3.9,1.5-8.1,2.3-12.8,2.3s-11.6-1.4-16-4.3c-4.4-2.9-7.8-7-10.1-12.4-2.3-5.4-3.5-11.8-3.5-19.2v-71.4h-24.8v78.1c0,10.4,1.8,19.4,5.4,27,3.6,7.6,8.8,13.4,15.4,17.6,6.7,4.2,14.5,6.3,23.5,6.3s14-1.4,20.2-4.2c6.3-2.8,11.7-6.6,16.3-11.4,2.1-2.2,3.9-4.5,5.4-7v20.2h24.8v-126.6h-24.8v76.2Z"/>
    <path class="st1" d="M700.3,957.2c-5.2-5.5-11.4-9.8-18.4-12.9-7.1-3.1-14.7-4.7-22.9-4.7s-18,1.6-25.9,4.9c-8,3.3-14.8,8-20.5,14-5.7,6-10.2,13.1-13.4,21.3-3.2,8.2-4.8,17.3-4.8,27.2s2.9,23.6,8.6,33.3c5.7,9.6,13.6,17.2,23.6,22.8,10,5.5,21.6,8.3,34.6,8.3s12-.8,18.2-2.5c6.2-1.7,12.1-4,17.6-6.9,5.5-2.9,10.2-6.3,14.1-10.1l-12.5-17.6c-6.3,5.5-12.1,9.2-17.5,11.3-5.4,2.1-11.2,3.1-17.5,3.1s-16.6-1.8-23.4-5.3c-6.7-3.5-12-8.6-15.7-15.1-2.8-4.9-4.5-10.5-5.2-16.8h96.8l.2-10.6c.2-8.8-1.2-17-4-24.5-2.8-7.5-6.8-13.9-12.1-19.4ZM637,967.4c5.9-3.3,13.3-4.9,21.9-4.9s10.5,1.2,15.2,3.6c4.7,2.4,8.5,5.7,11.6,9.9,3.1,4.2,4.8,8.9,5.3,14.2v1.7h-70.8c.8-3.7,1.8-7,3.3-10,3.1-6.3,7.6-11.2,13.5-14.5Z"/>
    <rect class="st1" x="922" y="942.5" width="24.8" height="126.6"/>
    <path class="st1" d="M934,883.2c-5.1,0-9.2,1.4-12.2,4.3-3,2.9-4.5,6.7-4.5,11.3s1.4,8.8,4.3,11.6c2.9,2.7,7,4.1,12.3,4.1s9.2-1.4,12.2-4.3c3-2.9,4.5-6.7,4.5-11.3s-1.4-8.8-4.3-11.6c-2.9-2.7-7-4.1-12.3-4.1Z"/>
    <polygon class="st1" points="1050 942.5 1020.6 942.5 1020.6 910.2 995.7 910.2 995.7 942.5 969.5 942.5 969.5 966.6 995.7 966.6 995.7 1069 1020.6 1069 1020.6 966.6 1050 966.6 1050 942.5"/>
    <polygon class="st1" points="752.1 1073 773.5 1073 773.5 1047.2 726.3 1047.2 726.3 1072.9 726.3 1073 726.3 1121.8 751.6 1121.8 752.1 1121.8 752.2 1121.8 752.2 1096 752.1 1096 752.1 1073"/>
    <path class="st1" d="M880.8,978.5c4.3-3.9,8-8.5,11-13.7,4.6-8.1,7-17.1,7-27.1s-2.3-19-7-27.1c-4.6-8.1-10.8-14.5-18.5-19.3-7.7-4.7-16.3-7.1-25.7-7.1h-70.8v162.9h0v25.8h0v23h-21.3v25.8h48.2v-48.7h.1v-26h-.1v-55.5h43.5c4.5,0,8.5,1.2,12.2,3.7,3.6,2.5,6.6,5.8,8.8,9.9,2.2,4.1,3.4,8.8,3.4,13.9s-1.1,9.8-3.4,14c-2.2,4.2-5.2,7.6-8.8,10.2-3.6,2.6-7.7,3.9-12.2,3.9h-5.7c0-.1-34.5-.1-34.5-.1v26h40.7c9.4,0,18-2.4,25.7-7.3,7.7-4.9,13.9-11.4,18.5-19.5,4.6-8.1,7-17.1,7-27.1s-2.3-19-7-27.1c-3-5.3-6.7-9.8-11-13.6ZM803.5,910.1h43.5c4.5,0,8.5,1.2,12.2,3.7,3.6,2.5,6.6,5.8,8.8,9.9,2.2,4.1,3.4,8.8,3.4,13.9s-1.1,9.8-3.4,14c-2.2,4.2-5.2,7.6-8.8,10.2-3.6,2.6-7.7,3.9-12.2,3.9h-43.5v-55.7Z"/>
  </g>
  <g>
    <path class="st2" d="M127.2,1341.8c-8.8-5.6-19-8.4-30.4-8.4s-13.6,1.4-20.1,4.2c-6.5,2.8-12,6.4-16.5,10.8-1.7,1.7-3.1,3.4-4.3,5.1v-18h-25.1v179.6h25.1v-69.6c.8.9,1.7,1.9,2.7,2.8,4.8,4.7,10.7,8.5,17.6,11.5,6.9,3,14.1,4.5,21.5,4.5,11.1,0,21.1-2.9,29.9-8.6,8.8-5.7,15.8-13.5,20.9-23.4,5.1-9.9,7.6-21.1,7.6-33.6s-2.6-23.9-7.7-33.7c-5.1-9.8-12.1-17.5-21-23.1ZM126.9,1420.6c-3.4,6.4-8,11.5-13.7,15.2-5.8,3.7-12.4,5.5-19.8,5.5s-14.2-1.8-20-5.5c-5.8-3.7-10.4-8.8-13.7-15.2-3.4-6.4-5.1-13.7-5.1-21.9s1.7-15.5,5.1-21.9c3.4-6.4,8-11.5,13.7-15.1,5.8-3.6,12.5-5.4,20-5.4s14.2,1.8,20,5.5c5.8,3.7,10.3,8.7,13.6,15.1,3.3,6.4,4.9,13.6,4.9,21.8s-1.7,15.5-5.1,21.9Z"/>
    <path class="st2" d="M270.9,1354.8c-2.6-4.1-5.7-7.8-9.5-11-4.1-3.5-8.9-6.1-14.3-8.1-5.5-1.9-11.5-2.9-18.1-2.9-11.1,0-21.1,2.8-30,8.4-8.9,5.6-16,13.4-21.2,23.3-5.2,9.9-7.8,21.2-7.8,33.9s2.6,23.8,7.7,33.7c5.1,10,12,17.8,20.6,23.6,8.6,5.8,18.1,8.7,28.6,8.7s11.9-1,17.5-2.9c5.5-1.9,10.6-4.5,15.2-7.7,4.6-3.2,8.4-6.9,11.3-11,0,0,0-.1.1-.2v19.3h25.1v-126.6h-25.1v19.3ZM266.9,1420.7c-3.3,6.5-7.8,11.6-13.6,15.3-5.8,3.7-12.5,5.5-20,5.5s-13.9-1.8-19.6-5.5c-5.7-3.7-10.2-8.8-13.5-15.3-3.3-6.5-4.9-13.9-4.9-22.3s1.6-15.5,4.9-21.9c3.3-6.4,7.8-11.5,13.5-15.2,5.7-3.7,12.3-5.5,19.6-5.5s14.2,1.8,20,5.5c5.8,3.7,10.3,8.8,13.6,15.2,3.3,6.4,4.9,13.7,4.9,21.9s-1.6,15.8-4.9,22.3Z"/>
    <path class="st2" d="M417.9,1352.7c-1.6-2.1-3.6-4-5.8-5.9-3.1-2.6-6.5-4.9-10.4-7.1-3.9-2.2-8-3.9-12.5-5.1-4.5-1.2-9.2-1.8-14-1.8-11.7,0-22.3,2.9-31.7,8.6-9.4,5.7-16.8,13.5-22.2,23.4-5.4,9.9-8.1,21.2-8.1,33.9s2.7,24,8.2,33.9c5.5,9.9,12.9,17.7,22.3,23.4,9.4,5.7,20.1,8.6,32.2,8.6s13.7-1.4,20.2-4.3c6.6-2.9,12.1-6.6,16.5-11.2,2.2-2.2,3.9-4.5,5.2-6.9v15.2c0,8.4-1.5,15.3-4.6,21-3.1,5.6-7.6,9.9-13.5,12.8-5.9,2.9-13.3,4.3-22.2,4.3s-9.4-.5-14.2-1.6c-4.8-1-9.4-2.5-13.7-4.3-4.3-1.8-8.1-4-11.3-6.4l-9.2,19.3c5.5,4.5,12.7,8.2,21.6,11,8.9,2.8,17.9,4.2,26.9,4.2s19.2-1.4,27.2-4.2c8-2.8,14.9-6.9,20.5-12.3,5.6-5.4,9.9-12,12.9-19.8,3-7.8,4.5-16.8,4.5-26.9v-118.8h-24.8v17.2ZM399.6,1436c-6.1,3.7-13.1,5.5-21,5.5s-14.6-1.8-20.6-5.5c-6-3.7-10.8-8.8-14.2-15.3-3.5-6.5-5.2-13.9-5.2-22.1s1.7-15.5,5.2-22.1c3.5-6.5,8.2-11.6,14.2-15.4,6-3.8,12.9-5.7,20.6-5.7s14.8,1.8,20.9,5.5c6,3.7,10.8,8.8,14.2,15.3,3.5,6.5,5.2,13.9,5.2,22.3s-1.7,15.8-5.1,22.2c-3.4,6.4-8.1,11.5-14.2,15.2Z"/>
    <path class="st2" d="M552.2,1411.7c0,4.5-.8,8.7-2.4,12.5-1.6,3.9-3.8,7.2-6.6,9.9-2.8,2.7-6.1,4.9-10,6.4-3.9,1.5-8.1,2.3-12.8,2.3s-11.6-1.4-16-4.3c-4.4-2.9-7.8-7-10.1-12.4-2.3-5.4-3.5-11.8-3.5-19.2v-71.4h-24.8v78.1c0,10.4,1.8,19.4,5.4,27,3.6,7.6,8.8,13.4,15.4,17.6,6.7,4.2,14.5,6.3,23.5,6.3s14-1.4,20.2-4.2c6.3-2.8,11.7-6.6,16.3-11.4,2.1-2.2,3.9-4.5,5.4-7v20.2h24.8v-126.6h-24.8v76.2Z"/>
    <path class="st2" d="M700.3,1350.2c-5.2-5.5-11.4-9.8-18.4-12.9-7.1-3.1-14.7-4.7-22.9-4.7s-18,1.6-25.9,4.9c-8,3.3-14.8,8-20.5,14-5.7,6-10.2,13.1-13.4,21.3-3.2,8.2-4.8,17.3-4.8,27.2s2.9,23.6,8.6,33.3c5.7,9.6,13.6,17.2,23.6,22.8,10,5.5,21.6,8.3,34.6,8.3s12-.8,18.2-2.5c6.2-1.7,12.1-4,17.6-6.9,5.5-2.9,10.2-6.3,14.1-10.1l-12.5-17.6c-6.3,5.5-12.1,9.2-17.5,11.3-5.4,2.1-11.2,3.1-17.5,3.1s-16.6-1.8-23.4-5.3c-6.7-3.5-12-8.6-15.7-15.1-2.8-4.9-4.5-10.5-5.2-16.8h96.8l.2-10.6c.2-8.8-1.2-17-4-24.5-2.8-7.5-6.8-13.9-12.1-19.4ZM637,1360.5c5.9-3.3,13.3-4.9,21.9-4.9s10.5,1.2,15.2,3.6c4.7,2.4,8.5,5.7,11.6,9.9,3.1,4.2,4.8,8.9,5.3,14.2v1.7h-70.8c.8-3.7,1.8-7,3.3-10,3.1-6.3,7.6-11.2,13.5-14.5Z"/>
    <rect class="st2" x="922" y="1335.5" width="24.8" height="126.6"/>
    <path class="st2" d="M934,1276.2c-5.1,0-9.2,1.4-12.2,4.3-3,2.9-4.5,6.7-4.5,11.3s1.4,8.8,4.3,11.6c2.9,2.7,7,4.1,12.3,4.1s9.2-1.4,12.2-4.3c3-2.9,4.5-6.7,4.5-11.3s-1.4-8.8-4.3-11.6c-2.9-2.7-7-4.1-12.3-4.1Z"/>
    <polygon class="st2" points="1050 1335.5 1020.6 1335.5 1020.6 1303.2 995.7 1303.2 995.7 1335.5 969.5 1335.5 969.5 1359.6 995.7 1359.6 995.7 1462.1 1020.6 1462.1 1020.6 1359.6 1050 1359.6 1050 1335.5"/>
    <polygon class="st2" points="752.1 1466 773.5 1466 773.5 1440.2 726.3 1440.2 726.3 1465.9 726.3 1466 726.3 1514.8 751.6 1514.8 752.1 1514.8 752.2 1514.8 752.2 1489 752.1 1489 752.1 1466"/>
    <path class="st2" d="M880.8,1371.5c4.3-3.9,8-8.5,11-13.7,4.6-8.1,7-17.1,7-27.1s-2.3-19-7-27.1c-4.6-8.1-10.8-14.5-18.5-19.3-7.7-4.7-16.3-7.1-25.7-7.1h-70.8v162.9h0v25.8h0v23h-21.3v25.8h48.2v-48.7h.1v-26h-.1v-55.5h43.5c4.5,0,8.5,1.2,12.2,3.7,3.6,2.5,6.6,5.8,8.8,9.9,2.2,4.1,3.4,8.8,3.4,13.9s-1.1,9.8-3.4,14c-2.2,4.2-5.2,7.6-8.8,10.2-3.6,2.6-7.7,3.9-12.2,3.9h-5.7c0-.1-34.5-.1-34.5-.1v26h40.7c9.4,0,18-2.4,25.7-7.3,7.7-4.9,13.9-11.4,18.5-19.5,4.6-8.1,7-17.1,7-27.1s-2.3-19-7-27.1c-3-5.3-6.7-9.8-11-13.6ZM803.5,1303.1h43.5c4.5,0,8.5,1.2,12.2,3.7,3.6,2.5,6.6,5.8,8.8,9.9,2.2,4.1,3.4,8.8,3.4,13.9s-1.1,9.8-3.4,14c-2.2,4.2-5.2,7.6-8.8,10.2-3.6,2.6-7.7,3.9-12.2,3.9h-43.5v-55.7Z"/>
  </g>
</svg>