<?xml version="1.0" encoding="UTF-8"?>
<svg id="Layer_1" xmlns="http://www.w3.org/2000/svg" version="1.1" viewBox="0 0 241.3 320.4">
  <!-- Generator: Adobe Illustrator 29.0.1, SVG Export Plug-In . SVG Version: 2.1.0 Build 192)  -->
  <defs>
    <style>
      .st0 {
        fill: #4d4d4f;
      }

      .st1 {
        fill: #f66100;
      }
    </style>
  </defs>
  <polyline class="st1" points="43.5 312.2 100.9 312.2 100.9 279.4 43.5 279.4 43.5 279.2"/>
  <g>
    <path class="st0" d="M221.2,147.7c-5.9-10.3-13.7-18.4-23.5-24.4-9.8-6-20.6-9-32.6-9h-89.8v103.2H11.4v32.7h63.9v.2h89.8c12,0,22.8-3.1,32.6-9.3,9.8-6.2,17.6-14.4,23.5-24.7,5.9-10.3,8.8-21.7,8.8-34.4s-2.9-24.1-8.8-34.4ZM191.1,199.9c-2.8,5.4-6.6,9.7-11.2,12.9-4.6,3.3-9.8,4.9-15.4,4.9h-7.2v-.2h-48v-70.4h55.2c5.7,0,10.8,1.6,15.4,4.7,4.6,3.2,8.4,7.4,11.2,12.6,2.8,5.3,4.3,11.1,4.3,17.6s-1.4,12.4-4.3,17.8Z"/>
    <path class="st1" d="M75.3,312.2V10.9h89.8c12,0,22.8,3,32.6,9,9.8,6,17.6,14.1,23.5,24.4,5.9,10.3,8.8,21.7,8.8,34.4s-2.9,24.1-8.8,34.4c-5.9,10.3-13.7,18.5-23.5,24.7-9.8,6.2-20.6,9.3-32.6,9.3h-55.8v165.1h-34ZM109.3,114.3h55.2c5.7,0,10.8-1.6,15.4-4.9,4.6-3.3,8.4-7.6,11.2-12.9,2.8-5.4,4.3-11.3,4.3-17.8s-1.4-12.4-4.3-17.6c-2.8-5.2-6.6-9.5-11.2-12.6-4.6-3.2-9.8-4.7-15.4-4.7h-55.2v70.6Z"/>
  </g>
  <polyline class="st0" points="11.4 250.1 11.4 312.2 44.1 312.2 44.1 250.1 44.3 250.1"/>
</svg>