<?xml version="1.0" encoding="UTF-8"?>
<svg id="Layer_1" xmlns="http://www.w3.org/2000/svg" version="1.1" viewBox="0 0 1080 321">
  <!-- Generator: Adobe Illustrator 29.0.1, SVG Export Plug-In . SVG Version: 2.1.0 Build 192)  -->
  <defs>
    <style>
      .st0 {
        fill: #fff;
      }

      .st1 {
        fill: #f66100;
      }
    </style>
  </defs>
  <g>
    <path class="st0" d="M30.8,289.7V110.1h25.1v28.9l-3.9-2.2c1-4.8,3.7-9.4,8.2-13.9,4.5-4.4,10-8,16.5-10.8,6.5-2.8,13.2-4.2,20.1-4.2,11.4,0,21.5,2.8,30.4,8.4,8.8,5.6,15.8,13.3,21,23.1,5.1,9.8,7.7,21.1,7.7,33.7s-2.5,23.7-7.6,33.6c-5.1,9.9-12,17.7-20.9,23.4-8.8,5.7-18.8,8.6-29.9,8.6s-14.5-1.5-21.5-4.5c-6.9-3-12.8-6.8-17.6-11.5-4.8-4.7-7.8-9.5-8.9-14.5l6.3-3.4v84.6h-25.1ZM93.4,215.9c7.4,0,14-1.8,19.8-5.5,5.8-3.7,10.4-8.8,13.7-15.2,3.4-6.4,5.1-13.7,5.1-21.9s-1.7-15.5-4.9-21.8c-3.3-6.3-7.8-11.4-13.6-15.1-5.8-3.7-12.5-5.5-20-5.5s-14.2,1.8-20,5.4c-5.8,3.6-10.4,8.6-13.7,15.1-3.4,6.4-5.1,13.7-5.1,21.9s1.7,15.5,5.1,21.9c3.4,6.4,8,11.5,13.7,15.2,5.8,3.7,12.5,5.5,20,5.5Z"/>
    <path class="st0" d="M226.7,239.1c-10.4,0-20-2.9-28.6-8.7-8.6-5.8-15.5-13.7-20.6-23.6-5.1-10-7.7-21.2-7.7-33.7s2.6-24,7.8-33.9c5.2-9.9,12.3-17.6,21.2-23.3,8.9-5.6,18.9-8.4,30-8.4s12.6,1,18.1,2.9c5.5,1.9,10.2,4.6,14.3,8.1,4.1,3.5,7.5,7.4,10.1,11.9,2.7,4.5,4.3,9.3,4.9,14.5l-5.5-1.9v-32.8h25.1v126.6h-25.1v-30.1l5.8-1.7c-1,4.3-2.9,8.6-5.9,12.7-3,4.1-6.7,7.8-11.3,11-4.6,3.2-9.6,5.8-15.2,7.7-5.5,1.9-11.4,2.9-17.5,2.9ZM233.2,216.2c7.6,0,14.2-1.8,20-5.5,5.8-3.7,10.3-8.8,13.6-15.3,3.3-6.5,4.9-13.9,4.9-22.3s-1.6-15.5-4.9-21.9c-3.3-6.4-7.8-11.5-13.6-15.2-5.8-3.7-12.5-5.5-20-5.5s-13.9,1.8-19.6,5.5c-5.7,3.7-10.2,8.8-13.5,15.2-3.3,6.4-4.9,13.7-4.9,21.9s1.6,15.8,4.9,22.3c3.3,6.5,7.8,11.6,13.5,15.3,5.7,3.7,12.3,5.5,19.6,5.5Z"/>
    <path class="st0" d="M377.6,292.1c-9,0-18-1.4-26.9-4.2-8.9-2.8-16.1-6.5-21.6-11l9.2-19.3c3.2,2.4,7,4.5,11.3,6.4,4.3,1.8,8.9,3.3,13.7,4.3,4.8,1,9.6,1.6,14.2,1.6,8.8,0,16.2-1.4,22.2-4.3,5.9-2.9,10.4-7.2,13.5-12.8,3.1-5.6,4.6-12.6,4.6-21v-24.3l2.7,1.7c-.8,5-3.4,9.8-7.8,14.3-4.4,4.6-9.9,8.3-16.5,11.2-6.6,2.9-13.3,4.3-20.2,4.3-12.1,0-22.8-2.9-32.2-8.6-9.4-5.7-16.8-13.5-22.3-23.4-5.5-9.9-8.2-21.2-8.2-33.9s2.7-24,8.1-33.9c5.4-9.9,12.8-17.7,22.2-23.4,9.4-5.7,20-8.6,31.7-8.6s9.5.6,14,1.8c4.5,1.2,8.7,2.9,12.5,5.1s7.3,4.5,10.4,7.1c3.1,2.6,5.5,5.3,7.5,8.2,1.9,2.9,3.1,5.6,3.6,8.2l-5.3,1.9v-29.7h24.8v118.8c0,10.1-1.5,19.1-4.5,26.9-3,7.8-7.3,14.4-12.9,19.8-5.6,5.4-12.5,9.5-20.5,12.3-8,2.8-17.1,4.2-27.2,4.2ZM378.6,216.2c7.9,0,14.9-1.8,21-5.5,6.1-3.7,10.8-8.8,14.2-15.2,3.4-6.4,5.1-13.8,5.1-22.2s-1.7-15.8-5.2-22.3c-3.5-6.5-8.2-11.6-14.2-15.3-6-3.7-13-5.5-20.9-5.5s-14.6,1.9-20.6,5.7c-6,3.8-10.8,8.9-14.2,15.4-3.5,6.5-5.2,13.9-5.2,22.1s1.7,15.5,5.2,22.1c3.5,6.5,8.2,11.6,14.2,15.3,6,3.7,12.9,5.5,20.6,5.5Z"/>
    <path class="st0" d="M510.2,239.1c-9,0-16.8-2.1-23.5-6.3-6.7-4.2-11.8-10-15.4-17.6-3.6-7.6-5.4-16.6-5.4-27v-78.1h24.8v71.4c0,7.4,1.2,13.8,3.5,19.2,2.3,5.4,5.7,9.5,10.1,12.4,4.4,2.9,9.8,4.3,16,4.3s8.9-.8,12.8-2.3c3.9-1.5,7.2-3.7,10-6.4,2.8-2.7,5-6,6.6-9.9,1.6-3.9,2.4-8,2.4-12.5v-76.2h24.8v126.6h-24.8v-26.5l4.3-2.9c-1.9,5.9-5.2,11.3-9.8,16.2s-10,8.6-16.3,11.4c-6.3,2.8-13,4.2-20.2,4.2Z"/>
    <path class="st0" d="M661.1,239.1c-13,0-24.6-2.8-34.6-8.3-10-5.5-17.9-13.1-23.6-22.8-5.7-9.6-8.6-20.7-8.6-33.3s1.6-19,4.8-27.2c3.2-8.2,7.7-15.3,13.4-21.3,5.7-6,12.5-10.7,20.5-14,8-3.3,16.6-4.9,25.9-4.9s15.8,1.6,22.9,4.7c7.1,3.1,13.2,7.4,18.4,12.9,5.2,5.5,9.2,11.9,12.1,19.4,2.8,7.5,4.1,15.6,4,24.5l-.2,10.6h-103.4l-5.5-19.8h87.5l-3.6,4.1v-5.8c-.5-5.3-2.3-10-5.3-14.2-3.1-4.2-6.9-7.5-11.6-9.9-4.7-2.4-9.7-3.6-15.2-3.6-8.7,0-16,1.6-21.9,4.9-5.9,3.3-10.4,8.1-13.5,14.5-3.1,6.4-4.6,14.2-4.6,23.5s1.8,16.5,5.5,23c3.7,6.5,8.9,11.5,15.7,15.1,6.7,3.5,14.5,5.3,23.4,5.3s12.1-1,17.5-3.1c5.4-2.1,11.2-5.9,17.5-11.3l12.5,17.6c-3.9,3.9-8.6,7.2-14.1,10.1-5.5,2.9-11.4,5.2-17.6,6.9-6.2,1.7-12.3,2.5-18.2,2.5Z"/>
  </g>
  <g>
    <path class="st0" d="M934,82.1c-5.3,0-9.4-1.4-12.3-4.1-2.9-2.7-4.3-6.6-4.3-11.6s1.5-8.4,4.5-11.3c3-2.9,7-4.3,12.2-4.3s9.4,1.4,12.3,4.1c2.9,2.7,4.3,6.6,4.3,11.6s-1.5,8.4-4.5,11.3c-3,2.9-7,4.3-12.2,4.3ZM922,236.7v-126.6h24.8v126.6h-24.8Z"/>
    <path class="st0" d="M969.5,134.2v-24.1h80.5v24.1h-80.5ZM995.7,236.7V77.8h24.8v158.9h-24.8Z"/>
  </g>
  <g>
    <polyline class="st1" points="751.6 289.4 796.9 289.4 796.9 263.6 751.6 263.6 751.6 263.4"/>
    <g>
      <path class="st0" d="M891.7,159.7c-4.6-8.1-10.8-14.5-18.5-19.3-7.7-4.7-16.3-7.1-25.7-7.1h-70.8v81.4h-50.4v25.8h50.4v.2h70.8c9.4,0,18-2.4,25.7-7.3,7.7-4.9,13.9-11.4,18.5-19.5,4.6-8.1,7-17.1,7-27.1s-2.3-19-7-27.1ZM868,200.9c-2.2,4.2-5.2,7.6-8.8,10.2-3.6,2.6-7.7,3.9-12.2,3.9h-5.7c0-.1-37.8-.1-37.8-.1v-55.5h43.5c4.5,0,8.5,1.2,12.2,3.7,3.6,2.5,6.6,5.8,8.8,9.9,2.2,4.1,3.4,8.8,3.4,13.9s-1.1,9.8-3.4,14Z"/>
      <path class="st1" d="M776.7,289.4V51.9h70.8c9.4,0,18,2.4,25.7,7.1,7.7,4.7,13.9,11.1,18.5,19.3,4.6,8.1,7,17.1,7,27.1s-2.3,19-7,27.1c-4.6,8.1-10.8,14.6-18.5,19.5-7.7,4.9-16.3,7.3-25.7,7.3h-44v130.2h-26.8ZM803.5,133.4h43.5c4.5,0,8.5-1.3,12.2-3.9,3.6-2.6,6.6-6,8.8-10.2,2.2-4.2,3.4-8.9,3.4-14s-1.1-9.8-3.4-13.9c-2.2-4.1-5.2-7.5-8.8-9.9-3.6-2.5-7.7-3.7-12.2-3.7h-43.5v55.7Z"/>
    </g>
    <polyline class="st0" points="726.3 240.5 726.3 289.4 752.1 289.4 752.1 240.5 752.3 240.5"/>
  </g>
</svg>