<?xml version="1.0" encoding="UTF-8"?>
<svg id="Layer_1" xmlns="http://www.w3.org/2000/svg" version="1.1" viewBox="0 0 1080 277">
  <!-- Generator: Adobe Illustrator 29.0.1, SVG Export Plug-In . SVG Version: 2.1.0 Build 192)  -->
  <defs>
    <style>
      .st0 {
        fill: #231f20;
      }
    </style>
  </defs>
  <path class="st0" d="M127.2,83.2c-8.8-5.6-19-8.4-30.4-8.4s-13.6,1.4-20.1,4.2c-6.5,2.8-12,6.4-16.5,10.8-1.7,1.7-3.1,3.4-4.3,5.1v-18h-25.1v179.6h25.1v-69.6c.8.9,1.7,1.9,2.7,2.8,4.8,4.7,10.7,8.5,17.6,11.5,6.9,3,14.1,4.5,21.5,4.5,11.1,0,21.1-2.9,29.9-8.6,8.8-5.7,15.8-13.5,20.9-23.4,5.1-9.9,7.6-21.1,7.6-33.6s-2.6-23.9-7.7-33.7c-5.1-9.8-12.1-17.5-21-23.1ZM126.9,162c-3.4,6.4-8,11.5-13.7,15.2-5.8,3.7-12.4,5.5-19.8,5.5s-14.2-1.8-20-5.5c-5.8-3.7-10.4-8.8-13.7-15.2-3.4-6.4-5.1-13.7-5.1-21.9s1.7-15.5,5.1-21.9c3.4-6.4,8-11.5,13.7-15.1,5.8-3.6,12.5-5.4,20-5.4s14.2,1.8,20,5.5c5.8,3.7,10.3,8.7,13.6,15.1,3.3,6.4,4.9,13.6,4.9,21.8s-1.7,15.5-5.1,21.9Z"/>
  <path class="st0" d="M270.9,96.2c-2.6-4.1-5.7-7.8-9.5-11-4.1-3.5-8.9-6.1-14.3-8.1-5.5-1.9-11.5-2.9-18.1-2.9-11.1,0-21.1,2.8-30,8.4-8.9,5.6-16,13.4-21.2,23.3-5.2,9.9-7.8,21.2-7.8,33.9s2.6,23.8,7.7,33.7c5.1,10,12,17.8,20.6,23.6,8.6,5.8,18.1,8.7,28.6,8.7s11.9-1,17.5-2.9c5.5-1.9,10.6-4.5,15.2-7.7,4.6-3.2,8.4-6.9,11.3-11,0,0,0-.1.1-.2v19.3h25.1v-126.6h-25.1v19.3ZM266.9,162.1c-3.3,6.5-7.8,11.6-13.6,15.3-5.8,3.7-12.5,5.5-20,5.5s-13.9-1.8-19.6-5.5c-5.7-3.7-10.2-8.8-13.5-15.3-3.3-6.5-4.9-13.9-4.9-22.3s1.6-15.5,4.9-21.9c3.3-6.4,7.8-11.5,13.5-15.2,5.7-3.7,12.3-5.5,19.6-5.5s14.2,1.8,20,5.5c5.8,3.7,10.3,8.8,13.6,15.2,3.3,6.4,4.9,13.7,4.9,21.9s-1.6,15.8-4.9,22.3Z"/>
  <path class="st0" d="M417.9,94.1c-1.6-2.1-3.6-4-5.8-5.9-3.1-2.6-6.5-4.9-10.4-7.1-3.9-2.2-8-3.9-12.5-5.1-4.5-1.2-9.2-1.8-14-1.8-11.7,0-22.3,2.9-31.7,8.6-9.4,5.7-16.8,13.5-22.2,23.4-5.4,9.9-8.1,21.2-8.1,33.9s2.7,24,8.2,33.9c5.5,9.9,12.9,17.7,22.3,23.4,9.4,5.7,20.1,8.6,32.2,8.6s13.7-1.4,20.2-4.3c6.6-2.9,12.1-6.6,16.5-11.2,2.2-2.2,3.9-4.5,5.2-6.9v15.2c0,8.4-1.5,15.3-4.6,21-3.1,5.6-7.6,9.9-13.5,12.8-5.9,2.9-13.3,4.3-22.2,4.3s-9.4-.5-14.2-1.6c-4.8-1-9.4-2.5-13.7-4.3-4.3-1.8-8.1-4-11.3-6.4l-9.2,19.3c5.5,4.5,12.7,8.2,21.6,11,8.9,2.8,17.9,4.2,26.9,4.2s19.2-1.4,27.2-4.2c8-2.8,14.9-6.9,20.5-12.3,5.6-5.4,9.9-12,12.9-19.8,3-7.8,4.5-16.8,4.5-26.9v-118.8h-24.8v17.2ZM399.6,177.4c-6.1,3.7-13.1,5.5-21,5.5s-14.6-1.8-20.6-5.5c-6-3.7-10.8-8.8-14.2-15.3-3.5-6.5-5.2-13.9-5.2-22.1s1.7-15.5,5.2-22.1c3.5-6.5,8.2-11.6,14.2-15.4,6-3.8,12.9-5.7,20.6-5.7s14.8,1.8,20.9,5.5c6,3.7,10.8,8.8,14.2,15.3,3.5,6.5,5.2,13.9,5.2,22.3s-1.7,15.8-5.1,22.2c-3.4,6.4-8.1,11.5-14.2,15.2Z"/>
  <path class="st0" d="M552.2,153.1c0,4.5-.8,8.7-2.4,12.5-1.6,3.9-3.8,7.2-6.6,9.9-2.8,2.7-6.1,4.9-10,6.4-3.9,1.5-8.1,2.3-12.8,2.3s-11.6-1.4-16-4.3c-4.4-2.9-7.8-7-10.1-12.4-2.3-5.4-3.5-11.8-3.5-19.2v-71.4h-24.8v78.1c0,10.4,1.8,19.4,5.4,27,3.6,7.6,8.8,13.4,15.4,17.6,6.7,4.2,14.5,6.3,23.5,6.3s14-1.4,20.2-4.2c6.3-2.8,11.7-6.6,16.3-11.4,2.1-2.2,3.9-4.5,5.4-7v20.2h24.8v-126.6h-24.8v76.2Z"/>
  <path class="st0" d="M700.3,91.6c-5.2-5.5-11.4-9.8-18.4-12.9-7.1-3.1-14.7-4.7-22.9-4.7s-18,1.6-25.9,4.9c-8,3.3-14.8,8-20.5,14-5.7,6-10.2,13.1-13.4,21.3-3.2,8.2-4.8,17.3-4.8,27.2s2.9,23.6,8.6,33.3c5.7,9.6,13.6,17.2,23.6,22.8,10,5.5,21.6,8.3,34.6,8.3s12-.8,18.2-2.5c6.2-1.7,12.1-4,17.6-6.9,5.5-2.9,10.2-6.3,14.1-10.1l-12.5-17.6c-6.3,5.5-12.1,9.2-17.5,11.3-5.4,2.1-11.2,3.1-17.5,3.1s-16.6-1.8-23.4-5.3c-6.7-3.5-12-8.6-15.7-15.1-2.8-4.9-4.5-10.5-5.2-16.8h96.8l.2-10.6c.2-8.8-1.2-17-4-24.5-2.8-7.5-6.8-13.9-12.1-19.4ZM637,101.8c5.9-3.3,13.3-4.9,21.9-4.9s10.5,1.2,15.2,3.6c4.7,2.4,8.5,5.7,11.6,9.9,3.1,4.2,4.8,8.9,5.3,14.2v1.7h-70.8c.8-3.7,1.8-7,3.3-10,3.1-6.3,7.6-11.2,13.5-14.5Z"/>
  <rect class="st0" x="922" y="76.9" width="24.8" height="126.6"/>
  <path class="st0" d="M934,17.6c-5.1,0-9.2,1.4-12.2,4.3-3,2.9-4.5,6.7-4.5,11.3s1.4,8.8,4.3,11.6c2.9,2.7,7,4.1,12.3,4.1s9.2-1.4,12.2-4.3c3-2.9,4.5-6.7,4.5-11.3s-1.4-8.8-4.3-11.6c-2.9-2.7-7-4.1-12.3-4.1Z"/>
  <polygon class="st0" points="1050 76.9 1020.6 76.9 1020.6 44.6 995.7 44.6 995.7 76.9 969.5 76.9 969.5 101 995.7 101 995.7 203.4 1020.6 203.4 1020.6 101 1050 101 1050 76.9"/>
  <polygon class="st0" points="752.1 207.4 773.5 207.4 773.5 181.6 726.3 181.6 726.3 207.3 726.3 207.4 726.3 256.2 751.6 256.2 752.1 256.2 752.2 256.2 752.2 230.4 752.1 230.4 752.1 207.4"/>
  <path class="st0" d="M880.8,112.9c4.3-3.9,8-8.5,11-13.7,4.6-8.1,7-17.1,7-27.1s-2.3-19-7-27.1c-4.6-8.1-10.8-14.5-18.5-19.3-7.7-4.7-16.3-7.1-25.7-7.1h-70.8v162.9h0v25.8h0v23h-21.3v25.8h48.2v-48.7h.1v-26h-.1v-55.5h43.5c4.5,0,8.5,1.2,12.2,3.7,3.6,2.5,6.6,5.8,8.8,9.9,2.2,4.1,3.4,8.8,3.4,13.9s-1.1,9.8-3.4,14c-2.2,4.2-5.2,7.6-8.8,10.2-3.6,2.6-7.7,3.9-12.2,3.9h-5.7c0-.1-34.5-.1-34.5-.1v26h40.7c9.4,0,18-2.4,25.7-7.3,7.7-4.9,13.9-11.4,18.5-19.5,4.6-8.1,7-17.1,7-27.1s-2.3-19-7-27.1c-3-5.3-6.7-9.8-11-13.6ZM803.5,44.5h43.5c4.5,0,8.5,1.2,12.2,3.7,3.6,2.5,6.6,5.8,8.8,9.9,2.2,4.1,3.4,8.8,3.4,13.9s-1.1,9.8-3.4,14c-2.2,4.2-5.2,7.6-8.8,10.2-3.6,2.6-7.7,3.9-12.2,3.9h-43.5v-55.7Z"/>
</svg>